<?xml version="1.0" encoding="utf-8"?>
<!-- Generator: Adobe Illustrator 16.0.0, SVG Export Plug-In . SVG Version: 6.00 Build 0)  -->
<!DOCTYPE svg PUBLIC "-//W3C//DTD SVG 1.1//EN" "http://www.w3.org/Graphics/SVG/1.1/DTD/svg11.dtd">
<svg version="1.1" id="Ebene_1" xmlns="http://www.w3.org/2000/svg" xmlns:xlink="http://www.w3.org/1999/xlink" x="0px" y="0px"
	 width="100px" height="100px" viewBox="0 0 100 100" enable-background="new 0 0 100 100" xml:space="preserve">
<circle fill="#B2B2B2" cx="50" cy="50" r="50"/>
<path fill="#13110C" d="M146.679,110.111V35.884l0.902-0.902c0-0.166-3.119-0.3-7.537-0.3c-0.291,0-0.569,0-0.84,0.002l-0.029-0.002
	c0,0-5.73,0-9.631,0.08l5.11,9.557v65.792c-3.071,0.312-5.11,0.851-5.11,1.466c0,0.963,4.979,1.741,11.123,1.741
	c6.143,0,11.123-0.778,11.123-1.741C151.79,110.961,149.751,110.422,146.679,110.111z"/>
<rect x="7.5" y="51" fill="#13110C" width="87.333" height="13.834"/>
<polygon fill="#13110C" points="12.833,65.834 12.833,69.834 17.5,69.834 17.5,85.5 23.167,85.5 23.167,69.834 27.833,69.834 
	27.833,65.834 "/>
<polygon fill="#13110C" points="73.834,65.834 73.834,69.834 78.5,69.834 78.5,85.5 84.166,85.5 84.166,69.834 88.834,69.834 
	88.834,65.834 "/>
<polygon fill="#13110C" points="94.833,37.833 7.5,37.833 7.5,37.928 7.5,40.5 7.5,51.095 9.833,51.095 9.833,40.5 21.667,40.5 
	21.667,51.095 24,51.095 24,40.5 35.833,40.5 35.833,51.096 38.167,51.096 38.167,40.5 50,40.5 50,51.096 52.333,51.096 
	52.333,40.5 64.166,40.5 64.166,51.096 66.499,51.096 66.499,40.5 78.333,40.5 78.333,51.096 80.666,51.096 80.666,40.5 
	92.499,40.5 92.499,51.095 94.832,51.095 94.832,40.5 94.833,40.5 "/>
</svg>
