<?xml version="1.0" encoding="utf-8"?>
<!-- Generator: Adobe Illustrator 16.0.0, SVG Export Plug-In . SVG Version: 6.00 Build 0)  -->
<!DOCTYPE svg PUBLIC "-//W3C//DTD SVG 1.1//EN" "http://www.w3.org/Graphics/SVG/1.1/DTD/svg11.dtd">
<svg version="1.1" id="Ebene_1" xmlns="http://www.w3.org/2000/svg" xmlns:xlink="http://www.w3.org/1999/xlink" x="0px" y="0px"
	 width="100px" height="100px" viewBox="0 0 100 100" enable-background="new 0 0 100 100" xml:space="preserve">
<circle fill="#B2B2B2" cx="50" cy="50" r="50"/>
<g>
	<rect x="1.833" y="51" fill="#13110C" width="97.966" height="6.917"/>
	<polygon fill="#13110C" points="12.833,59.501 12.833,64.789 17.5,64.789 17.5,85.5 23.167,85.5 23.167,64.789 27.833,64.789 
		27.833,59.501 	"/>
	<polygon fill="#13110C" points="73.834,59.501 73.834,64.789 78.5,64.789 78.5,85.5 84.166,85.5 84.166,64.789 88.834,64.789 
		88.834,59.501 	"/>
	<polygon fill="#13110C" points="94.833,42.63 7.5,42.63 7.5,42.691 7.5,44.333 7.5,51.095 9.833,51.095 9.833,44.333 
		21.667,44.333 21.667,51.095 24,51.095 24,44.333 35.833,44.333 35.833,51.096 38.167,51.096 38.167,44.333 50,44.333 50,51.096 
		52.333,51.096 52.333,44.333 64.166,44.333 64.166,51.096 66.499,51.096 66.499,44.333 78.333,44.333 78.333,51.096 80.666,51.096 
		80.666,44.333 92.499,44.333 92.499,51.095 94.832,51.095 94.832,44.333 94.833,44.333 	"/>
</g>
</svg>
