<?xml version="1.0" encoding="utf-8"?>
<!-- Generator: Adobe Illustrator 16.0.0, SVG Export Plug-In . SVG Version: 6.00 Build 0)  -->
<!DOCTYPE svg PUBLIC "-//W3C//DTD SVG 1.1//EN" "http://www.w3.org/Graphics/SVG/1.1/DTD/svg11.dtd">
<svg version="1.1" id="Ebene_1" xmlns="http://www.w3.org/2000/svg" xmlns:xlink="http://www.w3.org/1999/xlink" x="0px" y="0px"
	 width="100px" height="100px" viewBox="0 0 100 100" enable-background="new 0 0 100 100" xml:space="preserve">
<circle fill="#B2B2B2" cx="50" cy="50" r="50"/>
<rect x="10.5" y="50" fill="#13110C" width="80.667" height="10.167"/>
<polygon fill="#13110C" points="14.833,62.5 29.5,62.5 29.5,69.055 25.833,69.055 25.5,82.167 17.833,82.167 18.167,69.992 
	14.833,69.055 "/>
<polygon fill="#13110C" points="71.834,62.5 86.5,62.5 86.5,69.055 82.834,69.055 82.5,82.167 74.834,82.167 75.167,69.992 
	71.834,69.055 "/>
<polygon fill="#13110C" points="10.5,49.333 10.5,40.833 91.167,40.833 91.167,49.333 87.833,49.333 88.167,45.083 79.167,45.083 
	79.167,49.333 75.167,49.333 74.833,45.083 62.833,45.083 63.5,49.333 59.833,49.333 59.167,45.083 50,45.083 50.834,49.333 
	46.833,49.333 46.167,45.083 36.833,45.083 36.833,49.333 33.5,49.333 33.167,45.083 24.167,45.083 23.833,49.333 20.5,49.333 
	20.167,45.083 14.833,45.083 14.833,49.333 "/>
</svg>
