<svg xmlns="http://www.w3.org/2000/svg" style="overflow: hidden; position: relative;" width="70" height="75" version="1.1" xmlns="http://www.w3.org/2000/svg"><desc>Created with Raphaël 2.1.0</desc><defs /><circle fill="#0099cc" stroke="none" cx="35" cy="35" r="35" /><circle style="opacity: 0.8;" opacity="0.8" fill="none" stroke="#eeeeee" stroke-dasharray="4,3" cx="35" cy="35" r="33" /><path fill="#ffffff" stroke="none" stroke-width="1.42857" transform="matrix(0.7 0 0 0.7 0 0)" d="M 44.63 47.552 L 44.783 47.483 C 44.923 47.419 44.984 47.253 44.92 47.113 C 44.856 46.971 44.687 46.91 44.547 46.974 L 44.4 47.042 C 43.766 47.327 42.587 47.858 42.37 48.601 C 42.298 48.852 42.338 49.108 42.491 49.339 C 42.687 49.64 43.01 49.774 43.399 49.714 C 44.137 49.602 45.034 48.79 45.19 48.242 C 45.232 48.094 45.147 47.938 44.997 47.895 C 44.849 47.853 44.693 47.939 44.651 48.089 C 44.558 48.414 43.849 49.078 43.314 49.159 C 43.095 49.193 43.01 49.109 42.96 49.032 C 42.897 48.936 42.882 48.852 42.909 48.758 C 43.053 48.263 44.199 47.747 44.63 47.552 Z M 40.468 49.009 C 40.505 48.959 40.522 48.902 40.522 48.845 C 40.522 48.76 40.482 48.676 40.407 48.621 C 40.282 48.528 40.105 48.558 40.012 48.683 L 39.871 48.872 C 39.64 49.176 39.423 49.465 39.43 49.956 C 39.435 50.292 39.475 50.622 39.733 50.77 C 39.982 50.914 40.271 50.792 40.546 50.64 C 40.996 50.391 41.548 49.794 41.687 49.182 C 41.777 48.786 41.727 48.284 41.413 48.057 C 41.287 47.966 41.014 47.849 40.606 48.095 C 40.473 48.174 40.43 48.346 40.51 48.479 C 40.59 48.612 40.761 48.654 40.895 48.575 C 41.011 48.505 41.075 48.504 41.085 48.511 C 41.123 48.539 41.167 48.667 41.167 48.835 C 41.167 48.904 41.16 48.98 41.142 49.059 C 41.055 49.444 40.666 49.935 40.275 50.151 C 40.126 50.234 40.062 50.256 40.025 50.264 C 40.012 50.219 39.996 50.131 39.993 49.948 C 39.992 49.943 39.992 49.937 39.992 49.931 C 39.992 49.643 40.11 49.487 40.32 49.209 L 40.468 49.009 Z M 37.715 50.631 C 37.573 50.569 37.408 50.634 37.346 50.776 C 37.338 50.796 36.504 52.721 37.097 53.318 C 37.239 53.462 37.51 53.589 37.989 53.382 C 38.607 53.118 39.243 51.875 39.205 51.008 C 39.184 50.508 38.947 50.159 38.541 50.026 C 38.394 49.978 38.235 50.058 38.187 50.205 C 38.139 50.352 38.219 50.51 38.366 50.559 C 38.438 50.581 38.628 50.644 38.645 51.033 C 38.677 51.758 38.113 52.721 37.768 52.868 C 37.579 52.95 37.503 52.932 37.494 52.924 C 37.324 52.753 37.556 51.695 37.859 51.001 C 37.921 50.858 37.857 50.693 37.715 50.631 Z M 38.716 59.362 C 38.201 59.881 37.968 60.91 38.247 61.44 C 38.398 61.728 38.677 61.859 39.014 61.798 C 39.167 61.772 39.267 61.625 39.241 61.474 C 39.214 61.322 39.068 61.219 38.916 61.246 C 38.8 61.267 38.77 61.229 38.744 61.179 C 38.593 60.892 38.752 60.12 39.114 59.756 C 39.325 59.543 39.486 59.585 39.603 59.645 C 39.74 59.716 39.909 59.662 39.98 59.524 C 40.051 59.387 39.997 59.218 39.859 59.147 C 39.467 58.945 39.05 59.024 38.716 59.362 Z M 37.999 65.456 C 38.15 65.426 38.248 65.277 38.217 65.126 C 38.186 64.974 38.038 64.876 37.887 64.908 C 37.409 65.006 36.931 65.449 36.67 66.037 C 36.442 66.55 36.439 67.059 36.66 67.433 C 36.857 67.767 37.112 67.821 37.263 67.819 C 36.937 68.159 36.836 68.791 36.967 69.263 C 37.099 69.74 37.436 70 37.866 69.962 C 37.991 69.95 38.093 69.858 38.116 69.734 C 38.129 69.666 38.165 69.613 38.226 69.528 L 38.367 69.297 C 38.448 69.165 38.39 69.026 38.259 68.944 C 38.129 68.863 37.94 68.933 37.857 69.063 L 37.77 69.2 C 37.735 69.249 37.698 69.304 37.663 69.367 C 37.606 69.331 37.547 69.261 37.506 69.112 C 37.48 69.02 37.468 68.922 37.468 68.825 C 37.468 68.518 37.583 68.224 37.725 68.156 C 37.792 68.123 37.839 68.064 37.863 68 C 37.854 68.036 37.844 68.068 37.837 68.11 C 37.81 68.261 37.91 68.408 38.063 68.434 C 38.216 68.461 38.361 68.361 38.389 68.209 C 38.4 68.148 38.41 68.121 38.421 68.086 C 38.657 68.357 39.028 69.197 39.03 69.457 C 39.03 69.458 39.03 69.458 39.03 69.46 C 39.03 69.771 38.7 70.33 38.501 70.507 C 38.492 70.467 38.483 70.428 38.478 70.352 C 38.467 70.198 38.333 70.081 38.179 70.092 C 38.025 70.102 37.908 70.237 37.919 70.391 C 37.965 71.056 38.277 71.143 38.46 71.136 C 39.019 71.114 39.595 69.953 39.591 69.451 C 39.589 69.102 39.021 67.51 38.407 67.458 C 38.227 67.443 37.999 67.521 37.878 67.94 C 37.879 67.926 37.883 67.915 37.883 67.902 C 37.883 67.862 37.874 67.819 37.855 67.78 C 37.825 67.718 37.774 67.677 37.716 67.651 C 38.041 67.422 38.283 67.016 38.369 66.827 C 38.432 66.686 38.369 66.519 38.227 66.456 C 38.086 66.393 37.92 66.456 37.857 66.598 C 37.714 66.916 37.412 67.25 37.26 67.258 C 37.216 67.261 37.167 67.191 37.142 67.148 C 37.014 66.931 37.028 66.608 37.181 66.263 C 37.363 65.856 37.707 65.518 37.999 65.456 Z M 36.016 72.387 C 36.201 72.707 36.413 72.882 36.651 72.91 C 36.571 73.571 36.556 74.64 37.032 75.031 C 37.167 75.141 37.461 75.291 37.907 75.052 C 38.557 74.705 38.775 73.446 38.522 72.635 C 38.382 72.183 38.109 71.903 37.752 71.824 C 37.816 71.676 37.877 71.521 37.935 71.363 L 37.951 71.32 C 38.005 71.175 37.93 71.012 37.786 70.96 C 37.64 70.905 37.48 70.98 37.426 71.125 L 37.41 71.169 C 37.162 71.839 36.982 72.132 36.867 72.259 C 36.836 72.277 36.808 72.302 36.786 72.331 C 36.759 72.349 36.739 72.353 36.727 72.354 C 36.707 72.356 36.622 72.314 36.501 72.105 C 36.35 71.842 36.538 70.824 36.922 70.521 C 36.982 70.473 37.065 70.41 37.239 70.575 C 37.351 70.682 37.529 70.677 37.635 70.564 C 37.741 70.452 37.737 70.274 37.625 70.168 C 37.295 69.855 36.903 69.822 36.575 70.081 C 36.018 70.522 35.698 71.836 36.016 72.387 Z M 37.421 72.694 C 37.567 72.699 37.68 72.548 37.699 72.4 C 37.8 72.45 37.909 72.552 37.986 72.801 C 38.039 72.971 38.063 73.16 38.063 73.352 C 38.063 73.889 37.876 74.433 37.643 74.558 C 37.46 74.656 37.406 74.612 37.388 74.597 C 37.227 74.465 37.17 74.028 37.17 73.58 C 37.17 73.222 37.208 72.866 37.26 72.649 C 37.262 72.647 37.264 72.646 37.266 72.643 C 37.31 72.671 37.359 72.691 37.421 72.694 Z M 33.729 62.888 C 33.758 62.81 33.78 62.742 33.791 62.696 C 33.828 62.546 33.735 62.394 33.584 62.358 C 33.434 62.321 33.282 62.414 33.246 62.564 C 33.16 62.92 32.761 63.608 32.52 63.657 C 32.507 63.66 32.47 63.669 32.397 63.571 C 32.301 63.444 32.341 63.166 32.501 62.843 C 32.777 62.289 33.248 61.889 33.432 61.889 C 33.587 61.889 33.713 61.763 33.713 61.61 C 33.713 61.454 33.588 61.329 33.432 61.329 C 32.929 61.329 32.309 61.972 31.999 62.594 C 31.732 63.132 31.715 63.599 31.95 63.91 C 32.2 64.24 32.486 64.237 32.634 64.207 C 32.694 64.194 32.752 64.171 32.808 64.143 C 32.793 64.16 32.776 64.171 32.765 64.193 C 32.547 64.569 32.479 65.8 32.918 66.23 C 33.117 66.424 33.395 66.443 33.663 66.28 C 34.196 65.955 34.472 64.717 34.353 63.869 C 34.26 63.188 33.941 62.963 33.729 62.888 Z M 33.372 65.8 C 33.372 65.801 33.304 65.829 33.304 65.829 C 33.14 65.723 33.093 64.743 33.251 64.472 C 33.329 64.338 33.283 64.167 33.149 64.089 C 33.085 64.052 33.012 64.045 32.945 64.06 C 33.164 63.902 33.351 63.646 33.494 63.393 C 33.506 63.398 33.515 63.408 33.529 63.411 C 33.657 63.446 33.758 63.646 33.8 63.945 C 33.906 64.702 33.611 65.654 33.372 65.8 Z M 43.109 60.941 C 43.059 60.868 42.981 60.83 42.899 60.823 C 42.888 60.676 42.766 60.56 42.617 60.562 C 42.507 60.564 42.429 60.64 42.387 60.735 C 42.367 60.716 42.354 60.694 42.329 60.681 C 41.808 60.403 41.032 60.71 40.636 61.173 C 40.586 61.231 40.546 61.29 40.509 61.353 C 40.467 60.912 40.357 60.497 40.124 60.298 C 39.932 60.135 39.677 60.119 39.427 60.255 C 39.291 60.329 39.24 60.499 39.315 60.636 C 39.388 60.772 39.558 60.822 39.694 60.747 C 39.74 60.723 39.761 60.723 39.761 60.723 C 39.969 60.832 40.036 62.216 39.894 62.624 C 39.8 62.895 39.523 63.014 39.38 62.973 C 39.285 62.947 39.297 62.806 39.323 62.692 C 39.358 62.541 39.263 62.39 39.113 62.356 C 38.963 62.321 38.812 62.416 38.778 62.566 C 38.694 62.935 38.788 63.188 38.944 63.343 C 38.779 63.346 38.576 63.407 38.352 63.614 C 38.237 63.718 38.23 63.896 38.335 64.01 C 38.439 64.124 38.617 64.133 38.731 64.028 C 38.849 63.921 38.94 63.882 39.004 63.915 C 39.217 64.022 39.421 64.663 39.357 65.257 C 39.321 65.586 39.217 65.73 39.155 65.745 C 39.047 65.773 39.008 65.744 38.992 65.731 C 38.785 65.577 38.762 64.898 38.754 64.641 L 38.727 64.339 C 38.713 64.188 38.589 64.125 38.436 64.136 C 38.382 64.14 38.334 64.165 38.294 64.204 C 38.216 64.139 38.107 64.116 38.007 64.158 C 37.878 64.215 37.851 64.177 37.82 64.133 C 37.595 63.814 37.694 62.716 38.054 62.326 C 38.158 62.214 38.225 62.222 38.314 62.275 C 38.447 62.353 38.619 62.309 38.698 62.176 C 38.777 62.043 38.733 61.871 38.6 61.792 C 38.269 61.596 37.912 61.652 37.642 61.945 C 37.12 62.508 36.966 63.893 37.362 64.454 C 37.555 64.728 37.864 64.811 38.194 64.684 C 38.21 65.136 38.241 65.868 38.656 66.178 C 38.78 66.27 38.99 66.365 39.295 66.285 C 39.635 66.197 39.856 65.852 39.915 65.313 C 39.974 64.766 39.856 63.921 39.435 63.537 C 39.82 63.541 40.26 63.288 40.426 62.807 C 40.457 62.718 40.489 62.54 40.51 62.321 C 40.521 62.34 40.53 62.357 40.543 62.376 C 40.765 62.673 41.104 62.772 41.471 62.646 C 41.574 62.611 41.678 62.555 41.781 62.49 C 41.694 62.553 41.648 62.664 41.674 62.776 C 41.687 62.837 41.71 62.933 41.744 63.041 C 41.725 63.037 41.706 63.029 41.685 63.03 C 41.532 63.033 41.411 63.157 41.411 63.31 C 41.411 63.312 41.412 63.32 41.412 63.322 C 41.412 63.615 41.002 64.142 40.762 64.302 C 40.733 64.172 40.63 64.064 40.496 64.065 C 40.347 64.068 40.225 64.171 40.22 64.32 C 40.21 64.588 40.286 64.771 40.448 64.868 C 40.555 64.933 40.738 64.978 40.998 64.828 C 41.36 64.618 41.871 63.991 41.956 63.467 C 42.047 63.586 42.164 63.682 42.32 63.71 C 42.463 63.735 42.744 63.718 43.006 63.314 C 43.344 62.787 43.581 61.638 43.109 60.941 Z M 41.286 62.116 C 41.126 62.171 41.053 62.128 40.988 62.041 C 40.946 61.985 40.821 61.817 41.06 61.538 C 41.323 61.232 41.83 61.05 42.065 61.176 C 42.11 61.2 42.158 61.207 42.206 61.205 C 42.013 61.551 41.636 61.996 41.286 62.116 Z M 42.692 62.664 C 42.587 62.969 42.465 63.11 42.409 63.145 C 42.374 63.109 42.291 62.992 42.215 62.653 C 42.181 62.502 42.031 62.407 41.88 62.441 C 41.844 62.449 41.812 62.464 41.783 62.485 C 42.162 62.237 42.522 61.809 42.727 61.414 C 42.788 61.567 42.814 61.746 42.814 61.931 C 42.814 62.186 42.766 62.449 42.692 62.664 Z M 41.848 63.946 C 41.728 64.045 41.712 64.22 41.811 64.341 C 41.992 64.558 42.255 65.509 42.132 66.099 C 42.102 66.242 42.05 66.341 41.989 66.371 C 41.895 66.419 41.866 66.4 41.856 66.394 C 41.706 66.297 41.62 65.798 41.625 65.622 C 41.63 65.469 41.511 65.337 41.357 65.331 C 41.204 65.323 41.074 65.438 41.065 65.592 C 41.064 65.602 41.062 66.544 41.547 66.863 C 41.598 66.895 41.674 66.932 41.772 66.951 C 41.755 66.951 41.74 66.946 41.724 66.948 C 41.571 66.974 41.466 67.102 41.492 67.256 L 41.574 67.739 C 41.689 68.345 41.881 69.359 41.443 69.613 C 41.346 69.67 41.286 69.679 41.26 69.67 C 41.146 69.625 41.035 69.258 40.969 69.039 C 40.899 68.809 40.834 68.593 40.727 68.432 C 40.672 68.348 40.578 68.308 40.482 68.311 C 40.699 68.163 40.879 67.854 41.017 67.39 C 41.061 67.242 40.977 67.086 40.829 67.041 C 40.681 66.997 40.524 67.082 40.481 67.229 C 40.314 67.79 40.155 67.856 40.154 67.857 C 40.061 67.806 39.864 67.255 40.078 66.634 C 40.128 66.488 40.05 66.329 39.905 66.279 C 39.759 66.228 39.599 66.306 39.549 66.453 C 39.328 67.091 39.407 67.845 39.73 68.207 C 39.881 68.376 40.081 68.448 40.278 68.404 C 40.283 68.403 40.288 68.4 40.293 68.398 C 40.208 68.492 40.188 68.631 40.261 68.741 C 40.322 68.833 40.378 69.019 40.433 69.2 C 40.49 69.389 40.551 69.59 40.638 69.763 C 40.582 69.75 40.523 69.75 40.467 69.776 C 40.326 69.839 40.261 70.004 40.324 70.146 C 40.517 70.581 40.551 71.339 40.108 71.574 C 39.957 71.655 39.9 71.64 39.899 71.64 C 39.831 71.591 39.791 71.208 39.913 70.792 C 39.957 70.643 39.871 70.487 39.723 70.443 S 39.419 70.484 39.375 70.632 C 39.344 70.74 39.08 71.695 39.545 72.073 C 39.692 72.193 39.954 72.289 40.371 72.067 C 41.08 71.689 41.111 70.739 40.905 70.102 C 40.95 70.137 40.999 70.167 41.054 70.189 C 41.256 70.268 41.481 70.237 41.724 70.096 C 42.504 69.641 42.275 68.432 42.123 67.632 L 42.049 67.191 C 42.03 67.082 41.947 66.991 41.846 66.959 C 41.957 66.965 42.089 66.946 42.241 66.869 C 42.395 66.792 42.595 66.615 42.68 66.21 C 42.826 65.509 42.556 64.359 42.241 63.981 C 42.143 63.863 41.967 63.847 41.848 63.946 Z M 46.425 64.424 C 46.335 64.298 46.16 64.269 46.034 64.359 C 45.957 64.414 45.916 64.5 45.916 64.588 C 45.916 64.644 45.934 64.702 45.969 64.751 C 46.094 64.926 46.135 65.126 46.135 65.309 C 46.135 65.549 46.065 65.76 46.032 65.847 C 45.923 66.13 45.786 66.26 45.725 66.295 C 45.693 66.239 45.623 66.072 45.623 65.629 C 45.623 65.573 45.624 65.514 45.626 65.449 C 45.626 65.445 45.626 65.442 45.626 65.438 C 45.626 65.289 45.507 65.165 45.356 65.159 C 45.318 65.157 45.282 65.164 45.249 65.176 C 45.636 64.851 45.947 64.359 45.877 63.946 C 45.851 63.794 45.706 63.691 45.554 63.717 C 45.401 63.743 45.299 63.888 45.324 64.04 C 45.357 64.232 45.071 64.668 44.701 64.886 C 44.612 64.938 44.389 65.05 44.261 64.947 C 44.127 64.841 44.13 64.755 44.153 64.678 C 44.249 64.344 44.835 63.963 45.121 63.932 C 45.275 63.914 45.385 63.776 45.368 63.621 C 45.351 63.469 45.212 63.357 45.058 63.374 C 44.596 63.426 43.785 63.931 43.614 64.52 C 43.519 64.848 43.625 65.154 43.911 65.383 C 44.193 65.609 44.585 65.604 44.986 65.367 C 45.033 65.34 45.079 65.306 45.125 65.272 C 45.092 65.317 45.066 65.368 45.064 65.428 C 45.06 65.545 45.06 65.654 45.063 65.756 C 44.95 65.766 44.85 65.842 44.819 65.958 L 44.786 66.078 C 44.702 66.394 44.525 67.05 44.239 67.198 C 44.19 67.223 44.119 67.247 43.992 67.199 C 43.835 67.141 43.777 67.002 43.819 66.786 C 43.886 66.447 44.168 66.135 44.398 66.143 C 44.553 66.148 44.683 66.027 44.689 65.872 C 44.694 65.717 44.573 65.588 44.418 65.582 C 43.846 65.562 43.376 66.135 43.271 66.677 C 43.208 66.999 43.275 67.281 43.447 67.482 C 43.389 67.507 43.337 67.549 43.306 67.612 C 43.103 68.026 43.177 68.475 43.494 68.756 C 43.745 68.976 44.078 69.027 44.388 68.907 C 44.385 68.954 44.389 69.002 44.412 69.048 L 44.456 69.139 C 44.602 69.432 44.943 70.119 44.658 70.316 C 44.606 70.352 44.557 70.363 44.51 70.35 C 44.438 70.331 44.368 70.263 44.321 70.165 C 44.27 70.061 44.165 70.003 44.055 70.008 C 43.99 69.794 44.007 69.652 44.108 69.539 C 44.211 69.424 44.201 69.247 44.086 69.143 C 43.971 69.039 43.794 69.049 43.69 69.164 C 43.372 69.52 43.437 69.94 43.536 70.23 C 43.411 70.466 42.918 71.462 43.194 72.096 C 43.296 72.332 43.489 72.487 43.751 72.547 C 43.971 72.595 44.183 72.551 44.367 72.419 C 44.913 72.023 45.027 70.921 45.028 70.91 C 45.013 71.064 44.876 71.177 44.722 71.162 C 44.586 71.148 44.489 71.039 44.476 70.907 C 44.649 70.925 44.823 70.882 44.976 70.776 C 45.661 70.303 45.168 69.311 44.958 68.887 L 44.916 68.803 C 44.882 68.734 44.825 68.686 44.758 68.661 C 44.89 68.524 44.966 68.366 45.009 68.204 C 45.127 68.343 45.275 68.469 45.448 68.547 C 45.676 68.651 45.907 68.658 46.117 68.567 C 46.32 68.479 46.467 68.329 46.541 68.135 C 46.721 67.666 46.44 67.05 46.254 66.643 L 46.231 66.59 C 46.256 66.561 46.282 66.531 46.306 66.499 C 46.648 66.049 46.911 65.105 46.425 64.424 Z M 43.704 70.572 C 43.709 70.576 43.713 70.581 43.719 70.585 C 43.686 70.573 43.656 70.559 43.628 70.535 C 43.651 70.555 43.678 70.563 43.704 70.572 Z M 44.039 71.966 C 43.986 72.005 43.937 72.015 43.875 72 C 43.766 71.976 43.73 71.925 43.709 71.873 C 43.683 71.815 43.672 71.741 43.672 71.657 C 43.672 71.359 43.814 70.946 43.953 70.652 C 43.965 70.652 43.975 70.652 43.987 70.652 C 44.095 70.768 44.223 70.854 44.367 70.892 C 44.399 70.9 44.431 70.902 44.464 70.906 C 44.425 71.22 44.273 71.795 44.039 71.966 Z M 44.279 68.341 C 44.133 68.437 43.979 68.434 43.865 68.335 C 43.767 68.249 43.702 68.078 43.81 67.857 C 43.829 67.818 43.836 67.777 43.836 67.735 C 44.068 67.812 44.297 67.8 44.499 67.696 C 44.505 67.692 44.51 67.687 44.516 67.684 C 44.5 68.004 44.475 68.212 44.279 68.341 Z M 46.02 67.936 C 46.006 67.972 45.98 68.018 45.896 68.055 C 45.872 68.065 45.803 68.095 45.683 68.039 C 45.493 67.952 45.323 67.726 45.274 67.567 C 45.246 67.479 45.178 67.42 45.099 67.39 C 45.109 67.316 45.124 67.252 45.152 67.212 C 45.226 67.104 45.209 66.964 45.126 66.87 C 45.167 66.766 45.202 66.663 45.233 66.562 C 45.311 66.7 45.412 66.792 45.541 66.838 C 45.607 66.862 45.675 66.87 45.743 66.865 L 45.748 66.875 C 45.875 67.16 46.115 67.687 46.02 67.936 Z M 39.241 74.588 C 39.213 74.437 39.064 74.324 38.912 74.353 C 38.76 74.38 38.658 74.515 38.685 74.666 L 38.756 75.045 C 38.886 75.674 38.943 76.104 38.561 76.327 C 38.438 76.398 38.341 76.41 38.303 76.39 C 38.272 76.373 38.232 76.304 38.219 76.159 C 38.206 76.01 38.076 75.895 37.925 75.903 C 37.775 75.911 37.657 76.035 37.66 76.186 L 37.664 76.395 C 37.674 76.843 37.703 78.034 37.317 78.214 C 37.297 78.223 37.229 78.253 37.21 78.234 C 37.147 78.171 37.116 78.004 37.116 77.843 C 37.116 77.804 37.128 77.78 37.132 77.743 C 37.132 77.74 37.18 77.503 37.18 77.503 C 37.184 77.483 37.185 77.465 37.185 77.446 C 37.185 77.327 37.109 77.216 36.992 77.177 C 36.857 77.133 36.71 77.194 36.651 77.323 C 36.643 77.342 36.639 77.369 36.631 77.39 C 36.631 77.387 36.631 77.383 36.632 77.378 C 36.632 77.378 36.629 77.398 36.628 77.4 C 36.599 77.485 36.579 77.585 36.569 77.696 C 36.479 78.159 36.266 79.182 35.915 79.275 C 35.746 79.319 35.644 79.279 35.578 79.136 C 35.459 78.886 35.534 78.477 35.724 78.339 C 35.849 78.248 35.877 78.072 35.786 77.947 S 35.52 77.794 35.395 77.884 C 34.943 78.212 34.862 78.934 35.072 79.376 C 35.254 79.76 35.632 79.928 36.058 79.815 C 36.491 79.7 36.743 79.212 36.907 78.689 C 37.088 78.81 37.314 78.829 37.554 78.716 C 37.574 78.707 37.589 78.692 37.608 78.681 C 37.569 79.039 37.62 79.507 37.888 79.724 C 37.98 79.8 38.236 79.95 38.607 79.708 C 39.1 79.385 38.91 78.546 38.806 78.199 C 38.761 78.052 38.604 77.968 38.457 78.012 C 38.309 78.056 38.225 78.213 38.269 78.361 C 38.402 78.803 38.393 79.178 38.301 79.239 C 38.241 79.278 38.213 79.28 38.213 79.28 C 38.151 79.208 38.127 78.747 38.202 78.551 C 38.259 78.407 38.187 78.246 38.043 78.189 C 38.037 78.186 38.03 78.188 38.023 78.185 C 38.179 77.822 38.221 77.352 38.227 76.924 C 38.418 76.959 38.631 76.929 38.844 76.804 C 39.6 76.36 39.422 75.496 39.303 74.925 L 39.241 74.588 Z M 35.566 75.907 C 35.536 76.39 35.892 77.024 36.399 77.119 C 36.661 77.167 37.147 77.107 37.443 76.158 C 37.489 76.01 37.408 75.852 37.26 75.806 S 36.955 75.841 36.909 75.99 C 36.791 76.365 36.631 76.592 36.5 76.567 C 36.331 76.536 36.107 76.207 36.125 75.942 C 36.131 75.836 36.17 75.768 36.341 75.758 C 36.496 75.749 36.613 75.615 36.605 75.462 C 36.596 75.307 36.464 75.19 36.31 75.198 C 35.877 75.224 35.593 75.495 35.566 75.907 Z M 32.59 60.427 C 32.642 60.281 32.567 60.121 32.421 60.069 C 32.275 60.017 32.115 60.092 32.062 60.238 C 31.931 60.606 31.487 61.225 30.999 61.429 C 30.807 61.51 30.638 61.514 30.483 61.443 C 30.331 61.374 30.24 61.295 30.241 61.234 C 30.243 61.001 30.84 60.55 31.333 60.335 C 31.475 60.272 31.54 60.106 31.477 59.966 C 31.415 59.824 31.25 59.76 31.108 59.821 C 31.094 59.827 29.688 60.453 29.68 61.23 C 29.679 61.439 29.776 61.735 30.249 61.953 C 30.547 62.09 30.881 62.088 31.216 61.947 C 31.827 61.689 32.395 60.973 32.59 60.427 Z M 52.275 46.229 C 52.428 46.209 52.536 46.067 52.514 45.915 C 52.494 45.762 52.352 45.654 52.2 45.675 C 51.685 45.745 51.095 46.324 51.006 46.844 C 50.944 47.201 51.103 47.505 51.441 47.677 C 51.634 47.776 51.961 47.837 52.424 47.571 C 52.967 47.258 53.596 46.505 53.623 45.968 C 53.632 45.813 53.513 45.681 53.358 45.673 C 53.203 45.666 53.072 45.784 53.064 45.938 C 53.05 46.189 52.633 46.802 52.143 47.084 C 51.955 47.193 51.791 47.227 51.694 47.177 C 51.559 47.108 51.542 47.031 51.558 46.939 C 51.609 46.637 52.023 46.264 52.275 46.229 Z M 53.384 56.511 C 53.247 56.583 53.195 56.752 53.266 56.889 C 53.347 57.042 53.321 57.602 53.121 58.03 C 53.017 58.251 52.907 58.345 52.84 58.361 C 52.771 58.376 52.745 58.367 52.745 58.367 C 52.719 58.338 52.693 58.168 52.68 58.078 L 52.578 57.666 C 52.542 57.518 52.41 57.477 52.261 57.511 C 52.111 57.546 52.034 57.745 52.067 57.895 L 52.127 58.163 C 52.161 58.391 52.203 58.675 52.434 58.833 C 52.574 58.929 52.75 58.955 52.959 58.909 C 53.229 58.85 53.461 58.629 53.63 58.267 C 53.855 57.787 53.97 57.024 53.763 56.63 C 53.69 56.492 53.521 56.439 53.384 56.511 Z M 41.402 73.161 C 41.251 73.13 41.102 73.228 41.071 73.38 C 41.021 73.629 40.876 73.713 40.762 73.74 C 40.618 73.774 40.464 73.73 40.387 73.633 C 40.292 73.513 40.345 73.342 40.405 73.222 C 40.475 73.083 40.419 72.915 40.28 72.846 C 40.142 72.776 39.973 72.832 39.904 72.97 C 39.717 73.342 39.733 73.711 39.947 73.981 C 40.158 74.248 40.538 74.371 40.892 74.286 C 41.265 74.196 41.538 73.9 41.62 73.493 C 41.651 73.34 41.554 73.191 41.402 73.161 Z M 37.41 79.58 C 37.278 79.498 37.105 79.539 37.024 79.67 C 37.005 79.7 37.003 79.733 36.997 79.766 C 36.694 79.894 36.492 80.169 36.435 80.57 C 36.423 80.653 36.417 80.737 36.417 80.822 C 36.417 81.45 36.719 82.141 37.131 82.397 C 37.389 82.557 37.682 82.548 37.933 82.375 C 38.123 82.245 38.347 81.979 38.334 81.446 C 38.317 80.746 37.885 79.876 37.41 79.58 Z M 37.774 81.487 C 37.774 81.637 37.745 81.824 37.615 81.913 C 37.545 81.962 37.495 81.963 37.426 81.92 C 37.2 81.78 36.976 81.281 36.976 80.826 C 36.976 80.765 36.98 80.706 36.989 80.648 C 37.02 80.428 37.109 80.297 37.252 80.257 C 37.269 80.252 37.277 80.236 37.293 80.23 C 37.531 80.513 37.765 81.024 37.775 81.459 C 37.774 81.469 37.774 81.478 37.774 81.487 Z M 45.608 70.655 C 45.482 70.745 45.452 70.92 45.542 71.046 C 45.765 71.359 45.915 72.141 45.669 72.359 C 45.597 72.422 45.535 72.438 45.485 72.407 C 45.476 72.401 45.477 72.383 45.468 72.375 C 45.453 72.245 45.435 72.094 45.435 72.094 C 45.419 71.963 45.314 71.847 45.182 71.835 S 44.927 71.893 44.888 72.019 C 44.864 72.097 44.853 72.177 44.853 72.255 C 44.853 72.366 44.884 72.474 44.929 72.572 C 44.93 72.579 44.934 72.615 44.934 72.615 C 44.968 72.843 45.008 73.11 45.008 73.347 C 45.008 73.616 44.956 73.846 44.787 73.938 C 44.64 74.019 44.572 73.979 44.509 73.888 C 44.366 73.678 44.385 73.325 44.504 73.226 C 44.622 73.125 44.637 72.949 44.537 72.83 S 44.261 72.697 44.142 72.797 C 43.758 73.119 43.774 73.807 44.046 74.204 C 44.284 74.552 44.67 74.639 45.054 74.43 C 45.461 74.209 45.569 73.791 45.569 73.351 C 45.569 73.226 45.546 73.108 45.532 72.983 C 45.707 72.984 45.885 72.916 46.041 72.778 C 46.605 72.278 46.308 71.157 45.999 70.721 C 45.909 70.595 45.734 70.565 45.608 70.655 Z M 83.731 31.526 C 83.682 31.381 82.528 27.98 80.602 27.772 C 79.62 27.666 78.656 28.396 77.735 29.94 C 75.673 33.404 74.195 49.557 73.65 56.505 C 73.61 56.162 73.569 55.849 73.532 55.571 C 71.381 35.699 65.123 26.567 65.06 26.476 C 64.977 26.357 64.817 26.322 64.691 26.394 C 64.565 26.466 64.515 26.623 64.577 26.754 C 64.629 26.866 68.627 35.638 70.743 50.536 C 66.394 31.084 58.261 25.571 56.544 24.605 C 56.419 24.535 56.261 24.571 56.179 24.688 C 56.095 24.805 56.116 24.966 56.223 25.061 C 62.916 30.912 66.624 41.017 68.677 50.5 C 68.177 49.827 67.42 48.971 66.355 48.123 C 63.85 43.025 61.811 40.925 60.287 39.358 L 59.425 38.447 C 47.664 27.834 36.877 32.331 36.769 32.378 C 36.639 32.434 36.571 32.579 36.611 32.715 C 36.652 32.851 36.786 32.935 36.926 32.911 C 45.129 31.539 52.976 34.389 58.457 40.732 C 59.768 42.25 60.978 43.931 62.095 45.788 C 59.496 44.877 55.959 44.391 51.304 45.179 C 51.41 44.918 51.408 44.633 50.962 44.301 C 50.503 43.961 49.673 43.917 49.227 43.97 C 49.139 43.98 49.037 43.998 48.928 44.024 C 48.873 43.647 48.668 43.345 48.331 43.164 C 47.711 42.831 46.71 42.946 46.002 43.431 C 45.505 43.77 45.264 44.225 45.323 44.71 C 45.342 44.864 45.482 44.973 45.636 44.954 C 45.79 44.936 45.899 44.796 45.88 44.642 C 45.836 44.283 46.136 44.018 46.319 43.893 C 46.84 43.537 47.64 43.43 48.066 43.659 C 48.276 43.771 48.378 43.956 48.383 44.216 C 48.035 44.387 47.753 44.652 47.781 45.038 C 47.802 45.321 48.037 45.563 48.506 45.789 C 48.478 45.802 48.452 45.818 48.432 45.838 C 48.372 45.783 48.293 45.749 48.206 45.759 C 48.155 45.765 48.118 45.797 48.08 45.825 C 48.083 45.809 48.095 45.798 48.095 45.783 C 48.095 45.757 48.091 45.73 48.084 45.704 C 48.04 45.556 47.885 45.47 47.736 45.513 C 47.567 45.562 47.151 45.765 46.756 46.047 C 46.692 46.013 46.613 46.002 46.539 46.026 C 46.039 46.183 45.174 46.303 44.917 46.107 C 44.887 46.084 44.855 46.052 44.859 45.961 C 44.862 45.869 44.893 45.801 44.96 45.741 C 45.318 45.422 46.403 45.508 46.813 45.541 L 46.943 45.552 C 47.098 45.563 47.231 45.447 47.243 45.293 C 47.254 45.138 47.137 45.004 46.982 44.993 L 46.857 44.983 C 46.301 44.939 45.748 44.92 45.293 45.009 C 45.293 45.009 45.293 45.009 45.293 45.008 C 44.994 44.466 44.07 43.671 43.249 43.607 C 42.834 43.574 42.485 43.726 42.237 44.044 C 42.058 44.275 41.967 44.501 41.967 44.719 C 41.967 44.79 41.976 44.861 41.996 44.931 C 42.077 45.222 42.313 45.427 42.59 45.589 C 42.356 45.622 42.111 45.671 41.881 45.736 C 41.465 45.029 40.741 44.795 40.166 44.825 C 39.609 44.853 39.166 45.119 39.036 45.503 C 38.982 45.662 38.95 45.945 39.182 46.283 C 38.855 46.338 38.538 46.477 38.255 46.751 C 37.701 47.284 37.814 47.7 37.931 47.9 C 38.044 48.094 38.243 48.236 38.479 48.335 L 38.252 48.348 C 37.394 48.365 35.959 48.394 35.81 49.574 C 35.793 49.714 35.8 49.829 35.82 49.931 C 34.875 49.992 34.325 50.604 33.947 51.148 C 33.598 51.652 33.556 52.17 33.839 52.499 C 33.979 52.661 34.172 52.751 34.398 52.766 C 34.357 52.843 34.32 52.92 34.286 52.999 C 34.284 52.992 34.284 52.984 34.281 52.978 C 34.214 52.839 34.042 52.783 33.903 52.851 L 33.55 53.02 C 32.851 53.349 31.982 53.758 31.734 54.662 C 31.585 55.206 31.702 55.661 32.054 55.911 C 32.072 55.924 32.093 55.932 32.112 55.943 C 31.612 56.305 31.156 57.023 31.019 57.614 C 30.894 58.15 31.025 58.573 31.387 58.807 C 31.587 58.935 31.806 58.971 32.023 58.91 C 32.569 58.757 32.951 58.043 33.294 57.325 L 33.422 57.069 C 33.426 57.061 33.426 57.051 33.429 57.042 C 33.699 57.303 33.979 57.288 34.134 57.249 C 34.778 57.089 35.262 56.09 35.328 55.7 C 35.353 55.547 35.251 55.402 35.098 55.377 C 34.946 55.352 34.801 55.455 34.776 55.607 C 34.725 55.91 34.326 56.624 34 56.705 C 33.962 56.714 33.884 56.733 33.761 56.572 C 33.7 56.493 33.695 56.311 33.746 56.085 C 33.873 55.526 34.269 54.907 34.496 54.693 C 34.666 54.878 34.856 54.977 35.064 54.983 C 35.548 54.996 35.922 54.515 36.223 54.129 C 36.758 53.443 36.858 52.931 36.864 52.166 C 36.864 52.011 36.74 51.886 36.586 51.884 C 36.431 51.883 36.304 52.008 36.303 52.162 C 36.298 52.827 36.221 53.219 35.785 53.778 C 35.594 54.024 35.279 54.427 35.078 54.422 C 34.988 54.42 34.895 54.314 34.832 54.224 C 34.511 53.766 34.755 53.154 35.188 52.577 C 35.255 52.539 35.3 52.478 35.319 52.408 C 35.677 51.971 36.127 51.566 36.499 51.281 C 36.622 51.186 36.645 51.01 36.55 50.887 S 36.28 50.741 36.158 50.836 C 35.937 51.004 35.323 51.5 34.825 52.128 C 34.538 52.245 34.34 52.22 34.265 52.134 C 34.18 52.035 34.189 51.785 34.409 51.468 C 34.906 50.752 35.4 50.459 36.061 50.488 C 36.109 50.49 36.153 50.475 36.194 50.456 C 36.229 50.476 36.262 50.491 36.289 50.502 C 37.054 50.794 38.532 50.07 38.856 49.602 C 38.944 49.475 38.913 49.3 38.785 49.212 S 38.484 49.155 38.395 49.283 C 38.191 49.577 36.963 50.161 36.489 49.979 C 36.435 49.958 36.333 49.919 36.367 49.646 C 36.449 48.999 37.274 48.929 38.264 48.909 L 38.931 48.867 C 39.085 48.857 39.168 48.728 39.159 48.575 C 39.157 48.545 39.145 48.519 39.133 48.493 C 39.445 48.524 39.752 48.502 39.981 48.434 C 40.129 48.39 40.214 48.234 40.17 48.085 S 39.97 47.853 39.822 47.896 C 39.356 48.034 38.569 47.879 38.417 47.618 C 38.338 47.482 38.526 47.268 38.646 47.154 C 39.267 46.557 40.165 46.856 40.952 47.198 C 40.974 47.237 40.996 47.275 41.025 47.316 C 41.335 47.753 41.994 47.901 42.79 47.714 C 43.507 47.545 44.313 47.1 44.519 46.496 C 44.539 46.515 44.555 46.536 44.578 46.553 C 44.939 46.828 45.575 46.793 46.058 46.712 C 45.947 46.873 45.872 47.04 45.865 47.207 C 45.858 47.388 45.922 47.722 46.437 47.918 C 46.861 48.08 47.321 47.992 47.734 47.67 C 48.17 47.33 48.468 46.786 48.517 46.292 C 48.571 46.314 48.632 46.325 48.694 46.309 C 49.344 46.142 49.974 46.002 50.587 45.882 C 50.631 45.931 50.69 45.967 50.759 45.976 C 50.891 45.992 51.007 45.913 51.052 45.794 C 56.168 44.866 59.916 45.502 62.539 46.553 C 62.918 47.215 63.286 47.898 63.642 48.603 C 61.419 48.018 58.768 48.091 55.713 48.824 C 55.79 48.772 55.839 48.684 55.839 48.59 C 55.839 48.566 55.836 48.54 55.827 48.513 C 55.869 48.617 55.951 48.701 56.07 48.701 C 56.224 48.701 56.349 48.575 56.349 48.42 C 56.348 47.776 55.784 47.299 55.224 47.11 C 54.58 46.894 53.969 47.038 53.627 47.486 C 53.307 47.908 53.437 48.226 53.541 48.379 C 53.877 48.863 54.834 48.966 55.388 48.905 C 54.516 49.125 53.615 49.392 52.679 49.718 C 52.691 49.712 52.704 49.706 52.715 49.699 C 53.098 49.472 53.295 49.181 53.273 48.881 C 53.25 48.568 53.002 48.314 52.537 48.126 C 51.933 47.88 50.583 48.238 50.261 48.857 C 50.243 48.891 50.225 48.934 50.21 48.985 C 49.96 49.022 49.731 49.063 49.522 49.105 C 49.598 48.849 49.594 48.635 49.511 48.463 C 49.602 48.537 49.731 48.553 49.835 48.488 C 50.277 48.214 51.001 47.397 50.87 46.739 C 50.831 46.542 50.675 46.195 50.073 46.098 C 49.56 46.015 49.078 46.287 48.749 46.844 C 48.506 47.256 48.37 47.81 48.53 48.157 C 47.945 48.311 47.249 48.812 46.962 49.502 C 46.947 49.537 46.94 49.573 46.94 49.609 C 46.94 49.716 47.003 49.815 47.105 49.861 C 47.086 49.857 47.073 49.84 47.053 49.84 C 46.898 49.839 46.772 49.967 46.77 50.122 L 46.77 50.323 C 46.765 50.652 46.762 50.937 46.993 51.1 C 47.211 51.253 47.497 51.179 47.748 51.085 C 47.867 51.042 47.991 50.969 48.114 50.882 C 48.047 50.959 48.022 51.07 48.065 51.173 C 48.068 51.18 48.075 51.186 48.079 51.194 C 47.816 51.174 47.515 51.242 47.2 51.405 C 46.731 51.647 46.305 52.047 46.1 52.475 C 46.102 52.45 46.105 52.423 46.106 52.398 C 46.109 52.347 46.11 52.297 46.11 52.25 C 46.11 51.777 45.974 51.44 45.715 51.268 C 45.962 51.122 46.19 50.953 46.366 50.772 C 46.766 50.357 46.777 50.032 46.715 49.833 C 46.629 49.553 46.365 49.367 45.934 49.279 C 45.219 49.132 43.886 49.867 43.499 50.553 C 42.918 50.194 41.932 50.379 41.311 50.824 C 41.082 50.988 40.919 51.178 40.821 51.379 C 40.548 51.255 40.237 51.256 39.933 51.397 C 39.492 51.601 39.105 52.08 39.013 52.533 C 38.923 52.978 39.097 53.378 39.438 53.504 C 39.549 53.544 39.688 53.553 39.831 53.506 C 39.952 53.827 39.935 54.649 39.677 55.14 C 39.581 55.322 39.47 55.424 39.347 55.446 C 39.235 55.467 39.161 55.44 39.092 55.355 C 38.88 55.093 38.869 54.484 38.973 54.226 C 39.031 54.083 38.962 53.919 38.819 53.862 C 38.675 53.803 38.512 53.873 38.454 54.015 C 38.377 54.203 38.339 54.488 38.355 54.782 C 38.345 54.783 38.335 54.78 38.325 54.781 C 38.189 54.805 38.093 54.925 38.093 55.057 C 38.093 55.074 38.094 55.089 38.097 55.105 C 38.119 55.234 38.124 55.387 38.132 55.537 C 38.126 55.486 38.115 55.435 38.082 55.393 C 37.985 55.273 37.809 55.252 37.688 55.349 C 37.534 55.471 37.32 55.779 37.128 56.148 C 37.068 56.16 37.011 56.187 36.968 56.237 C 36.794 56.44 36.541 56.488 36.407 56.415 C 36.29 56.352 36.309 56.194 36.344 56.073 C 36.482 55.605 37.352 54.903 37.808 54.992 C 37.96 55.022 38.107 54.923 38.137 54.771 C 38.166 54.619 38.067 54.471 37.915 54.442 C 37.1 54.283 36.004 55.244 35.807 55.915 C 35.655 56.431 35.879 56.766 36.14 56.907 C 36.174 56.926 36.211 56.939 36.248 56.953 C 36.088 57.008 36.035 57.211 35.984 57.411 L 35.973 57.456 C 35.935 57.605 36.026 57.759 36.176 57.797 C 36.315 57.832 36.448 57.752 36.498 57.622 C 36.584 57.576 36.652 57.503 36.652 57.398 C 36.652 57.397 36.652 57.397 36.652 57.396 C 36.652 57.292 36.65 57.103 36.536 57.003 C 36.618 57.003 36.701 56.996 36.783 56.978 C 36.68 57.316 36.637 57.637 36.704 57.868 C 36.64 57.951 36.624 58.064 36.675 58.165 C 37.007 58.81 37.276 59.529 36.767 59.955 C 36.596 60.098 36.504 60.104 36.483 60.095 C 36.447 60.078 36.378 59.964 36.376 59.764 C 36.372 59.535 36.458 59.349 36.538 59.308 C 36.678 59.24 36.734 59.071 36.665 58.932 C 36.596 58.794 36.428 58.738 36.29 58.807 C 36.244 58.829 36.203 58.857 36.164 58.887 C 36.284 58.641 36.354 58.421 36.354 58.293 C 36.354 58.288 36.354 58.281 36.354 58.276 C 36.349 58.168 36.272 58.1 36.179 58.062 C 36.18 58.053 36.185 58.044 36.185 58.037 C 36.185 57.931 36.125 57.83 36.023 57.782 C 35.584 57.577 34.99 57.956 34.616 58.343 C 34.119 58.858 33.94 59.394 34.136 59.78 C 34.394 60.289 34.789 60.246 34.946 60.204 C 35.002 60.188 35.058 60.164 35.114 60.136 C 35.283 60.52 35.302 61.65 35.007 62.265 C 34.939 62.408 34.825 62.58 34.669 62.593 C 34.53 62.604 34.499 62.556 34.481 62.53 C 34.27 62.203 34.591 61.082 34.787 60.725 C 34.862 60.59 34.813 60.42 34.678 60.345 C 34.543 60.269 34.372 60.319 34.297 60.454 C 34.193 60.643 33.567 62.146 34.01 62.834 C 34.158 63.063 34.408 63.176 34.714 63.151 C 34.946 63.132 35.274 63.005 35.513 62.505 C 35.872 61.751 35.892 60.328 35.559 59.784 C 35.666 59.67 35.767 59.542 35.859 59.408 C 35.828 59.533 35.814 59.66 35.816 59.772 C 35.822 60.17 35.985 60.482 36.251 60.604 C 36.433 60.686 36.731 60.716 37.128 60.384 C 37.885 59.749 37.589 58.798 37.328 58.222 C 37.42 58.205 37.522 58.175 37.642 58.118 C 38.451 57.731 38.71 56.671 38.709 55.759 C 38.902 55.962 39.158 56.05 39.444 55.999 C 39.499 55.99 39.558 55.973 39.621 55.947 C 39.349 56.351 39.147 56.808 39.082 57.191 C 39.065 57.288 39.057 57.381 39.057 57.469 C 39.057 57.92 39.276 58.231 39.674 58.317 C 39.844 58.354 40.019 58.317 40.187 58.245 C 40.128 58.64 40.139 59.058 40.22 59.413 C 40.332 59.905 40.562 60.217 40.869 60.294 C 41.061 60.343 41.365 60.318 41.711 59.922 C 41.837 59.779 41.958 59.543 42.051 59.266 C 42.086 59.361 42.134 59.433 42.18 59.484 C 42.305 59.621 42.472 59.686 42.662 59.673 C 42.898 59.657 43.152 59.512 43.385 59.327 C 43.267 59.762 43.21 60.325 43.374 60.682 C 43.472 60.891 43.641 61.026 43.852 61.06 C 44.057 61.093 44.451 61.074 44.795 60.576 C 45.269 59.888 45.467 58.507 45.165 57.981 C 45.087 57.847 44.916 57.801 44.782 57.878 S 44.602 58.126 44.679 58.26 C 44.826 58.517 44.74 59.67 44.333 60.257 C 44.139 60.538 43.99 60.514 43.941 60.507 C 43.928 60.504 43.908 60.501 43.882 60.446 C 43.74 60.139 43.915 59.345 44.055 59.116 C 44.131 58.99 44.094 58.831 43.977 58.746 C 44.122 58.577 44.214 58.452 44.216 58.449 C 44.129 58.576 43.954 58.609 43.827 58.521 C 43.699 58.433 43.666 58.259 43.754 58.131 C 43.526 58.464 42.905 59.093 42.623 59.111 C 42.578 59.082 42.568 59.037 42.568 58.995 C 42.568 58.981 42.57 58.968 42.571 58.955 C 42.618 58.57 43.063 57.993 43.309 57.768 C 43.355 57.776 43.398 57.779 43.435 57.78 C 43.502 57.871 43.589 57.952 43.706 58.01 C 43.866 58.092 44.135 58.144 44.498 57.926 C 44.673 57.82 44.849 57.659 45.007 57.479 C 45.035 57.635 45.081 57.785 45.155 57.904 C 45.284 58.114 45.478 58.225 45.7 58.216 C 45.923 58.206 46.24 58.098 46.484 57.635 C 46.813 57.011 46.874 55.936 46.607 55.504 C 46.602 55.495 46.594 55.492 46.589 55.484 C 46.671 55.397 46.751 55.307 46.823 55.216 C 46.876 55.337 46.957 55.44 47.064 55.513 C 47.328 55.693 47.691 55.667 48.034 55.445 C 48.445 55.179 48.736 54.662 48.814 54.06 C 48.879 53.545 48.773 53.075 48.523 52.746 C 48.597 52.655 48.663 52.565 48.713 52.475 C 48.729 52.45 48.737 52.426 48.75 52.402 C 48.699 52.547 48.68 52.689 48.7 52.83 C 48.728 53.017 48.844 53.275 49.231 53.445 C 50.15 53.85 51.377 52.455 51.641 51.957 C 51.745 51.763 51.895 51.323 51.895 50.92 C 51.895 50.812 51.883 50.709 51.858 50.612 C 52.339 50.429 52.81 50.265 53.275 50.11 C 53.063 50.393 52.904 50.7 52.834 50.981 C 52.807 51.094 52.792 51.204 52.792 51.306 C 52.792 51.633 52.932 51.901 53.193 52.067 C 53.647 52.352 54.208 52.261 54.733 51.819 C 55.349 51.299 55.82 50.36 55.542 49.687 C 55.51 49.607 55.469 49.538 55.423 49.474 C 58.797 48.608 61.661 48.545 63.985 49.288 C 64.383 50.107 64.766 50.955 65.136 51.831 C 61.395 49.41 57.312 49.27 57.244 49.268 C 57.089 49.265 56.961 49.387 56.958 49.541 C 56.954 49.696 57.076 49.824 57.231 49.828 C 57.299 49.83 61.756 49.99 65.525 52.79 C 65.814 53.513 66.095 54.253 66.367 55.015 C 65.829 54.551 65.234 54.124 64.578 53.756 C 62.496 52.59 60.087 52.178 57.382 52.514 C 57.499 52.374 57.582 52.211 57.605 52.029 C 57.644 51.699 57.529 51.419 57.278 51.241 C 56.946 51.004 56.406 50.987 55.965 51.201 C 55.588 51.385 55.361 51.702 55.342 52.072 C 55.327 52.395 55.442 52.657 55.652 52.825 C 54.631 53.059 53.574 53.388 52.477 53.819 C 52.365 53.863 52.3 53.97 52.301 54.084 C 52.15 54.029 51.984 54.003 51.827 54.015 C 51.813 54.014 51.8 54.018 51.787 54.019 C 51.674 54.033 51.568 54.064 51.481 54.125 C 51.439 54.153 51.377 54.209 51.328 54.292 C 51.029 54.459 50.635 54.59 50.463 54.509 C 50.4 54.48 50.375 54.385 50.387 54.229 C 50.407 53.973 50.906 53.549 51.441 53.439 C 51.603 53.406 51.89 53.378 51.991 53.572 C 52.062 53.71 52.232 53.763 52.369 53.691 C 52.507 53.62 52.559 53.45 52.487 53.313 C 52.29 52.933 51.867 52.779 51.328 52.89 C 50.64 53.033 49.874 53.587 49.829 54.188 C 49.788 54.727 50.059 54.939 50.225 55.016 C 50.429 55.113 50.685 55.108 50.942 55.049 C 50.942 55.056 50.938 55.063 50.938 55.07 C 50.953 55.412 50.73 55.864 50.419 56.122 C 50.27 56.245 50.036 56.38 49.768 56.319 C 49.557 56.27 49.453 55.969 49.487 55.719 C 49.508 55.578 49.57 55.412 49.757 55.422 C 49.912 55.431 50.043 55.312 50.053 55.157 C 50.06 55.002 49.942 54.871 49.786 54.863 C 49.345 54.84 49.002 55.152 48.932 55.641 C 48.916 55.751 48.919 55.865 48.934 55.977 C 47.97 56.077 47.505 56.589 47.393 57.042 C 47.301 57.413 47.432 57.774 47.724 57.961 C 47.829 58.029 48.038 58.122 48.348 58.081 C 48.306 58.24 48.288 58.412 48.308 58.592 C 48.36 59.083 48.633 59.448 48.99 59.499 C 49.04 59.507 49.094 59.51 49.151 59.502 C 49.14 59.51 49.13 59.515 49.122 59.523 C 49.028 59.608 48.98 59.731 48.98 59.89 C 48.98 59.898 48.981 59.907 48.981 59.914 C 48.985 60.052 49.092 60.145 49.225 60.164 C 49.23 60.21 49.251 60.255 49.251 60.302 C 49.251 60.777 49.009 61.235 48.772 61.467 C 48.707 61.53 48.645 61.574 48.59 61.603 C 48.561 61.592 48.53 61.584 48.495 61.583 C 48.46 61.583 48.427 61.59 48.395 61.603 C 48.324 61.517 48.241 61.28 48.262 60.77 C 48.27 60.615 48.149 60.485 47.995 60.477 C 47.839 60.471 47.709 60.59 47.703 60.746 C 47.692 60.981 47.703 61.185 47.73 61.365 C 47.58 61.412 47.441 61.492 47.324 61.599 C 47.324 61.594 47.326 61.59 47.325 61.587 C 47.313 61.432 47.179 61.316 47.025 61.328 C 46.954 61.334 46.883 61.351 46.814 61.377 L 47.066 60.998 C 47.123 60.912 47.123 60.809 47.081 60.722 C 47.389 60.561 47.666 60.276 47.863 60.076 L 48.074 59.869 C 48.185 59.761 48.206 59.568 48.097 59.458 C 47.99 59.347 47.829 59.327 47.719 59.436 L 47.46 59.685 C 47.01 60.147 46.694 60.398 46.51 60.221 C 46.449 60.163 46.441 60.116 46.441 60.075 V 60.073 C 46.441 59.787 46.875 59.352 47.105 59.126 C 47.13 59.14 47.16 59.141 47.184 59.165 C 47.291 59.277 47.467 59.281 47.58 59.175 C 47.692 59.069 47.697 58.891 47.591 58.779 C 47.444 58.625 47.265 58.538 47.059 58.521 C 46.977 58.514 46.894 58.546 46.836 58.604 L 46.738 58.701 C 46.416 59.018 45.878 59.548 45.882 60.08 C 45.883 60.288 45.967 60.477 46.123 60.627 C 46.247 60.746 46.375 60.811 46.503 60.836 L 46.345 61.072 C 46.259 61.201 46.293 61.375 46.422 61.461 C 46.474 61.495 46.532 61.505 46.59 61.503 C 46.454 61.602 46.325 61.741 46.209 61.917 C 45.967 62.286 45.784 62.839 45.921 63.239 C 46.042 63.589 46.314 63.794 46.632 63.775 C 46.885 63.76 47.113 63.605 47.261 63.373 C 47.321 63.412 47.384 63.447 47.456 63.475 C 47.6 63.53 47.726 63.551 47.837 63.55 C 47.848 63.566 47.854 63.581 47.867 63.595 C 48.043 63.772 48.155 64.516 47.965 64.994 C 47.899 65.16 47.816 65.245 47.716 65.248 C 47.63 65.25 47.578 65.094 47.563 65.045 C 47.471 64.729 47.57 64.386 47.64 64.346 C 47.778 64.289 47.859 64.13 47.809 63.989 C 47.759 63.848 47.618 63.767 47.474 63.81 C 47.048 63.938 46.906 64.535 46.987 65.032 C 47.067 65.522 47.353 65.82 47.733 65.808 C 48.067 65.798 48.334 65.582 48.486 65.202 C 48.692 64.681 48.67 63.799 48.365 63.335 C 48.596 63.11 48.727 62.718 48.761 62.145 C 48.896 62.088 49.031 61.999 49.159 61.871 C 49.676 61.365 50.015 60.422 49.666 59.6 C 49.628 59.507 49.543 59.443 49.443 59.43 C 49.422 59.428 49.401 59.429 49.38 59.429 C 49.491 59.369 49.605 59.272 49.72 59.12 C 49.683 59.586 49.74 60.022 49.931 60.281 C 50.05 60.442 50.402 60.772 51.07 60.347 C 51.446 60.108 51.657 59.699 51.665 59.193 C 51.665 59.184 51.665 59.176 51.665 59.169 C 51.665 58.668 51.468 58.128 51.167 57.728 C 51.79 57.719 52.549 56.571 52.557 56.558 C 53.035 55.824 53.242 54.88 52.696 54.336 C 53.155 54.154 53.605 53.997 54.05 53.854 C 53.572 54.18 53.144 55.106 53.363 55.619 C 53.431 55.777 53.66 56.125 54.327 55.953 C 54.943 55.794 55.252 55.219 55.326 54.775 C 55.403 54.326 55.281 53.934 55.009 53.752 C 54.944 53.708 54.844 53.662 54.713 53.649 C 58.436 52.57 61.652 52.766 64.297 54.246 C 65.25 54.78 66.068 55.449 66.771 56.187 C 67.254 57.621 67.708 59.12 68.132 60.69 C 68.856 63.36 69.451 66.106 69.905 68.854 C 70.317 71.352 70.306 73.701 70.295 76.186 L 70.291 77.467 L 70.225 78.886 C 70.139 80.157 70.048 81.473 70.463 82.386 C 70.509 82.484 70.606 82.548 70.714 82.55 L 71.58 82.566 C 71.584 82.566 71.588 82.569 71.592 82.569 H 73 H 74.148 C 74.169 82.569 74.189 82.562 74.211 82.557 C 74.222 82.555 74.232 82.555 74.243 82.551 C 74.275 82.539 74.306 82.523 74.332 82.5 C 74.336 82.496 74.338 82.489 74.344 82.485 C 74.364 82.465 74.381 82.444 74.395 82.419 C 74.4 82.408 74.402 82.396 74.408 82.383 C 74.413 82.365 74.422 82.35 74.426 82.33 C 74.6 81.19 74.697 79.659 74.737 77.901 C 75.552 66.43 77.787 36.245 79.013 31.95 C 79.493 30.269 80.089 29.344 80.735 29.274 C 81.426 29.199 82.333 30.102 83.22 31.751 C 83.289 31.879 83.444 31.933 83.578 31.875 C 83.71 31.814 83.776 31.664 83.731 31.526 Z M 32.935 56.789 L 32.788 57.083 C 32.603 57.469 32.219 58.272 31.87 58.371 C 31.827 58.383 31.773 58.388 31.691 58.335 C 31.538 58.237 31.496 58.037 31.565 57.74 C 31.729 57.032 32.394 56.307 32.701 56.271 C 32.823 56.256 32.914 56.165 32.939 56.05 C 33.025 56.031 33.112 56.001 33.198 55.965 C 33.137 56.234 33.139 56.458 33.192 56.647 C 33.087 56.64 32.986 56.688 32.935 56.789 Z M 33.429 55.305 C 33.349 55.28 33.262 55.286 33.188 55.337 C 32.898 55.538 32.564 55.585 32.377 55.452 C 32.173 55.308 32.225 54.988 32.273 54.808 C 32.452 54.155 33.131 53.835 33.788 53.527 L 34.155 53.349 C 34.162 53.346 34.165 53.34 34.171 53.336 C 34.098 53.63 34.095 53.926 34.198 54.211 C 33.937 54.418 33.64 54.848 33.429 55.305 Z M 39.565 45.683 C 39.61 45.548 39.841 45.402 40.193 45.384 C 40.576 45.365 41.055 45.507 41.354 45.94 C 41.145 46.052 40.978 46.193 40.885 46.371 C 40.86 46.42 40.839 46.477 40.823 46.541 C 40.54 46.433 40.239 46.337 39.933 46.289 C 39.916 46.259 39.896 46.23 39.868 46.206 C 39.631 46.005 39.521 45.814 39.565 45.683 Z M 44.298 45.94 C 44.297 45.967 44.302 45.991 44.303 46.017 C 44.158 46.006 44.027 46.104 44.005 46.25 C 43.953 46.587 43.336 47.008 42.659 47.168 C 42.314 47.249 42.01 47.254 41.787 47.189 C 41.808 47.066 41.749 46.94 41.631 46.887 L 41.493 46.825 C 41.452 46.807 41.41 46.789 41.369 46.77 C 41.351 46.691 41.372 46.648 41.382 46.629 C 41.567 46.274 42.745 46.06 43.732 46.065 C 43.866 46.065 43.989 45.974 44.014 45.841 C 44.04 45.71 43.976 45.58 43.852 45.53 L 43.527 45.4 C 43.185 45.269 42.61 45.05 42.535 44.781 C 42.507 44.679 42.555 44.548 42.679 44.388 C 42.811 44.218 42.979 44.147 43.206 44.165 C 43.766 44.208 44.481 44.79 44.753 45.205 C 44.694 45.241 44.637 45.278 44.587 45.323 C 44.407 45.483 44.307 45.697 44.298 45.94 Z M 47.961 46.071 C 47.963 46.098 47.965 46.127 47.965 46.155 C 47.965 46.509 47.725 46.964 47.387 47.227 C 47.209 47.366 46.934 47.508 46.635 47.394 C 46.571 47.369 46.423 47.304 46.423 47.23 C 46.423 47.229 46.423 47.228 46.423 47.228 C 46.438 46.873 47.475 46.172 47.891 46.05 C 47.926 46.039 47.949 46.013 47.976 45.992 C 47.973 46.007 47.958 46.019 47.958 46.035 C 47.958 46.048 47.959 46.06 47.961 46.071 Z M 48.339 44.992 C 48.325 44.806 48.853 44.579 49.293 44.527 C 49.72 44.476 50.351 44.548 50.626 44.753 C 50.788 44.873 50.803 44.928 50.803 44.929 C 50.802 44.953 50.755 45.037 50.724 45.092 C 50.692 45.153 50.652 45.224 50.617 45.305 C 50.175 45.389 49.722 45.485 49.261 45.594 C 49.232 45.522 49.177 45.462 49.1 45.433 C 48.408 45.178 48.34 44.994 48.339 44.992 Z M 54 48.06 C 53.987 48.043 53.949 47.988 54.071 47.827 C 54.3 47.527 54.722 47.535 55.044 47.642 C 55.413 47.766 55.786 48.074 55.786 48.42 C 55.786 48.454 55.811 48.477 55.823 48.507 C 55.776 48.361 55.624 48.278 55.475 48.321 C 55.121 48.427 54.181 48.321 54 48.06 Z M 35.791 58.296 C 35.772 58.536 35.164 59.588 34.787 59.663 C 34.762 59.669 34.711 59.678 34.633 59.524 C 34.568 59.397 34.694 59.065 35.016 58.732 C 35.367 58.37 35.702 58.251 35.783 58.289 C 35.787 58.29 35.79 58.289 35.794 58.292 C 35.793 58.293 35.792 58.294 35.791 58.296 Z M 37.396 57.611 C 37.306 57.655 37.258 57.666 37.228 57.67 C 37.223 57.649 37.216 57.63 37.216 57.6 C 37.216 57.189 37.714 56.041 38.032 55.787 C 38.097 55.735 38.126 55.658 38.13 55.582 C 38.132 55.638 38.143 55.683 38.143 55.739 C 38.144 56.49 37.943 57.35 37.396 57.611 Z M 54.371 51.391 C 54.179 51.552 53.809 51.793 53.491 51.592 L 53.491 51.592 C 53.441 51.562 53.29 51.466 53.377 51.115 C 53.531 50.498 54.27 49.726 54.741 49.69 C 54.839 49.682 54.942 49.703 55.023 49.899 C 55.175 50.266 54.863 50.975 54.371 51.391 Z M 52.324 48.646 C 52.623 48.767 52.709 48.881 52.712 48.924 C 52.716 48.97 52.642 49.091 52.428 49.217 C 52.003 49.469 51.291 49.596 50.949 49.375 C 50.925 49.358 50.904 49.344 50.885 49.329 C 50.906 49.284 50.92 49.234 50.915 49.181 C 50.906 49.117 50.875 49.064 50.834 49.022 C 51.125 48.742 51.984 48.507 52.324 48.646 Z M 49.274 47.057 C 49.391 46.882 49.639 46.597 49.98 46.652 C 50.185 46.685 50.297 46.752 50.318 46.85 C 50.378 47.15 49.915 47.778 49.538 48.011 C 49.429 48.078 49.386 48.207 49.421 48.325 C 49.399 48.301 49.373 48.275 49.344 48.252 C 49.358 48.203 49.363 48.152 49.349 48.099 C 49.315 47.96 49.171 47.875 49.03 47.893 C 49.024 47.872 49.016 47.852 49.016 47.815 C 49.016 47.647 49.085 47.34 49.274 47.057 Z M 47.55 50.563 C 47.433 50.607 47.373 50.619 47.334 50.625 C 47.329 50.58 47.326 50.523 47.326 50.457 C 47.326 50.416 47.329 50.12 47.329 50.119 C 47.329 49.995 47.238 49.91 47.126 49.875 C 47.266 49.923 47.419 49.859 47.477 49.72 C 47.729 49.118 48.435 48.703 48.831 48.673 C 48.943 48.664 48.997 48.688 49.005 48.701 C 49.012 48.711 49.017 48.733 49.017 48.765 C 49.017 48.848 48.977 49.01 48.844 49.26 C 48.451 49.362 48.223 49.443 48.204 49.45 C 48.059 49.502 47.984 49.662 48.037 49.808 C 48.076 49.918 48.179 49.987 48.288 49.992 C 48.04 50.248 47.759 50.485 47.55 50.563 Z M 47.452 51.905 C 47.556 51.851 48.086 51.598 48.291 51.884 C 48.351 51.966 48.257 52.146 48.226 52.197 C 47.938 52.702 47.106 53.249 46.692 53.21 C 46.597 53.199 46.567 53.163 46.545 53.099 C 46.438 52.78 46.878 52.201 47.452 51.905 Z M 45.979 53.127 C 45.986 53.178 45.997 53.228 46.013 53.276 C 46.057 53.406 46.131 53.51 46.223 53.591 C 46.019 53.676 45.81 53.811 45.619 53.974 C 45.773 53.727 45.896 53.431 45.979 53.127 Z M 44.797 54.041 C 44.519 54.176 44.466 54.074 44.427 54 C 44.16 53.481 44.522 52.077 44.988 51.823 C 45.174 51.721 45.327 51.688 45.398 51.732 C 45.485 51.787 45.563 52.004 45.543 52.369 C 45.504 53.073 45.148 53.87 44.797 54.041 Z M 43.948 50.906 C 44.056 50.452 45.316 49.727 45.819 49.829 C 46.076 49.882 46.166 49.961 46.177 50 C 46.19 50.042 46.161 50.176 45.961 50.384 C 45.498 50.863 44.638 51.222 44.224 51.109 C 43.978 51.042 43.945 50.971 43.945 50.93 C 43.945 50.921 43.946 50.912 43.948 50.906 Z M 44.076 51.649 C 44.156 51.67 44.242 51.681 44.33 51.686 C 44.116 51.971 43.956 52.36 43.867 52.762 C 43.876 52.6 43.85 52.453 43.781 52.33 C 43.718 52.217 43.603 52.096 43.406 52.023 C 43.487 51.94 43.559 51.854 43.612 51.765 C 43.664 51.677 43.7 51.589 43.724 51.5 C 43.815 51.559 43.932 51.609 44.076 51.649 Z M 42.512 55.535 C 42.714 54.672 43.078 54.144 43.211 54.112 C 43.212 54.123 43.347 54.24 43.457 54.851 C 43.472 54.926 43.478 55.005 43.478 55.085 C 43.478 55.595 43.207 56.157 42.801 56.446 C 42.573 56.607 42.487 56.592 42.486 56.592 C 42.46 56.57 42.42 56.455 42.42 56.233 C 42.42 56.064 42.442 55.834 42.512 55.535 Z M 42.95 53.496 C 42.473 54.133 41.808 54.543 41.403 54.449 C 41.06 54.371 41.069 54.241 41.072 54.185 C 41.11 53.615 42.426 52.568 42.888 52.526 C 43.099 52.505 43.253 52.537 43.292 52.603 C 43.346 52.701 43.301 53.028 42.95 53.496 Z M 41.634 51.281 C 42.089 50.956 42.754 50.845 43.115 50.997 C 43.118 51.038 43.126 51.08 43.148 51.117 C 43.172 51.158 43.195 51.208 43.195 51.273 C 43.195 51.33 43.178 51.398 43.129 51.48 C 42.902 51.865 42.178 52.222 41.669 52.203 C 41.542 52.197 41.379 52.166 41.32 52.045 C 41.158 51.714 41.402 51.447 41.634 51.281 Z M 39.629 52.979 C 39.585 52.962 39.518 52.845 39.558 52.645 C 39.616 52.362 39.882 52.038 40.165 51.907 C 40.332 51.829 40.483 51.827 40.615 51.899 C 40.647 51.917 40.679 51.924 40.713 51.93 C 40.726 52.05 40.757 52.171 40.817 52.291 C 40.932 52.526 41.153 52.677 41.445 52.733 C 40.954 53.161 40.544 53.697 40.514 54.148 C 40.514 54.163 40.513 54.18 40.513 54.199 C 40.513 54.388 40.584 54.725 41.03 54.914 C 40.764 54.914 40.49 55.043 40.233 55.252 C 40.511 54.597 40.522 53.668 40.326 53.239 C 40.31 53.204 40.288 53.174 40.262 53.148 C 40.28 53.122 40.299 53.097 40.316 53.066 C 40.392 52.931 40.343 52.759 40.208 52.685 C 40.073 52.609 39.902 52.658 39.827 52.792 C 39.736 52.953 39.653 52.987 39.629 52.979 Z M 39.79 57.77 L 39.79 57.77 C 39.726 57.756 39.557 57.719 39.631 57.287 C 39.768 56.484 40.605 55.418 41.051 55.474 C 41.25 55.499 41.281 55.583 41.296 55.619 C 41.41 55.915 41.107 56.617 40.62 57.185 C 40.619 57.187 40.617 57.19 40.614 57.192 C 40.593 57.216 40.568 57.238 40.548 57.264 C 40.179 57.667 39.891 57.791 39.79 57.77 Z M 41.287 59.552 C 41.133 59.727 41.033 59.759 41.002 59.75 C 40.947 59.736 40.833 59.598 40.762 59.288 C 40.723 59.118 40.704 58.927 40.704 58.732 C 40.704 58.312 40.795 57.88 40.981 57.618 C 41.002 57.595 41.026 57.57 41.045 57.548 C 41.055 57.535 41.065 57.522 41.075 57.51 C 41.084 57.501 41.091 57.491 41.099 57.485 C 41.105 57.479 41.107 57.472 41.11 57.465 C 41.122 57.45 41.133 57.436 41.145 57.421 C 41.187 57.444 41.229 57.468 41.281 57.463 C 41.435 57.451 41.525 57.499 41.59 57.63 C 41.835 58.118 41.533 59.271 41.287 59.552 Z M 43.086 57.22 C 42.886 57.354 42.491 57.794 42.238 58.264 C 42.251 57.935 42.212 57.619 42.092 57.379 C 41.964 57.122 41.755 56.964 41.492 56.917 C 41.8 56.395 41.977 55.826 41.818 55.415 C 41.749 55.236 41.618 55.105 41.445 55.019 C 41.665 55.035 41.892 54.988 42.115 54.894 C 41.859 55.643 41.693 56.678 42.141 57.035 C 42.314 57.172 42.624 57.26 43.124 56.905 C 43.678 56.511 44.036 55.771 44.036 55.081 C 44.036 54.97 44.027 54.859 44.007 54.753 C 43.936 54.362 43.81 53.872 43.517 53.661 C 43.658 53.447 43.756 53.242 43.812 53.052 C 43.747 53.517 43.778 53.966 43.928 54.258 C 44.142 54.672 44.559 54.78 45.04 54.546 C 45.072 54.53 45.103 54.512 45.134 54.493 C 45.035 54.629 44.956 54.767 44.904 54.902 C 44.823 55.108 44.806 55.3 44.843 55.473 C 44.833 55.475 44.824 55.474 44.815 55.478 C 44.419 55.635 43.462 56.495 43.317 57.2 C 43.238 57.182 43.144 57.181 43.086 57.22 Z M 45.987 57.374 C 45.921 57.5 45.813 57.651 45.674 57.657 C 45.662 57.654 45.627 57.624 45.592 57.529 C 45.501 57.281 45.528 56.922 45.59 56.809 C 45.653 56.695 45.624 56.558 45.533 56.471 C 45.534 56.455 45.54 56.437 45.54 56.421 C 45.543 56.267 45.419 56.14 45.264 56.137 C 45.109 56.135 44.982 56.259 44.98 56.412 C 44.977 56.597 44.609 57.203 44.207 57.446 C 44.098 57.511 44.005 57.536 43.957 57.511 C 43.937 57.501 43.923 57.491 43.91 57.482 C 43.909 57.419 43.895 57.367 43.865 57.328 C 43.924 56.881 44.749 56.105 45.024 55.997 C 45.068 55.979 45.103 55.949 45.131 55.915 C 45.15 55.929 45.167 55.944 45.187 55.957 C 45.359 56.071 45.565 56.1 45.783 56.04 C 45.907 56.007 46.031 55.943 46.153 55.861 C 46.25 56.131 46.242 56.891 45.987 57.374 Z M 48.256 53.99 C 48.199 54.423 47.998 54.802 47.727 54.976 C 47.554 55.088 47.431 55.087 47.377 55.05 C 47.308 55.003 47.286 54.862 47.322 54.687 C 47.335 54.623 47.321 54.562 47.295 54.507 C 47.296 54.505 47.299 54.5 47.3 54.497 C 47.367 54.357 47.309 54.19 47.17 54.122 C 47.03 54.056 46.863 54.113 46.795 54.253 C 46.646 54.564 46.053 55.385 45.635 55.5 C 45.558 55.521 45.522 55.507 45.496 55.49 C 45.434 55.449 45.321 55.375 45.427 55.103 C 45.634 54.576 46.406 54.014 46.662 54.056 C 46.815 54.08 46.959 53.977 46.984 53.825 C 46.988 53.796 46.984 53.768 46.981 53.741 C 47.351 53.667 47.758 53.444 48.098 53.166 C 48.101 53.164 48.105 53.164 48.109 53.162 C 48.207 53.323 48.271 53.524 48.271 53.765 C 48.271 53.839 48.266 53.914 48.256 53.99 Z M 48.817 52.24 C 48.93 51.903 48.829 51.673 48.745 51.555 C 48.669 51.451 48.576 51.367 48.47 51.308 L 49.929 50.7 C 50.073 50.641 50.14 50.477 50.08 50.334 C 50.02 50.191 49.856 50.124 49.714 50.184 L 48.223 50.805 C 48.63 50.492 49.021 50.036 49.208 49.746 C 49.507 49.675 49.879 49.6 50.309 49.538 C 50.38 49.64 50.487 49.744 50.644 49.845 L 50.644 49.845 C 50.978 50.06 51.455 50.087 51.91 49.997 C 51.802 50.038 51.695 50.074 51.586 50.116 C 51.556 50.128 51.529 50.146 51.506 50.167 C 51.024 49.95 50.484 50.47 50.155 50.786 L 50.031 50.9 L 49.949 50.972 C 49.473 51.389 49.027 51.819 48.817 52.24 Z M 51.146 51.694 L 51.146 51.694 C 50.88 52.196 49.889 53.123 49.457 52.932 C 49.27 52.85 49.258 52.771 49.254 52.745 C 49.216 52.497 49.574 52.043 50.318 51.394 L 50.403 51.319 L 50.546 51.186 C 51.09 50.661 51.239 50.653 51.279 50.674 C 51.398 50.742 51.316 51.37 51.146 51.694 Z M 55.901 52.097 C 55.911 51.88 56.097 51.758 56.209 51.704 C 56.461 51.582 56.786 51.578 56.95 51.695 C 56.999 51.729 57.051 51.784 57.051 51.903 C 57.051 51.921 57.05 51.939 57.047 51.961 C 57.012 52.258 56.551 52.486 56.212 52.458 C 55.922 52.433 55.895 52.252 55.901 52.097 Z M 46.601 63.214 C 46.525 63.219 46.479 63.13 46.453 63.056 C 46.4 62.898 46.471 62.544 46.68 62.223 C 46.826 62.001 46.981 61.895 47.07 61.888 C 47.077 61.887 47.083 61.884 47.091 61.882 C 46.968 62.072 46.887 62.287 46.867 62.488 C 46.854 62.613 46.864 62.732 46.889 62.842 C 46.878 62.863 46.865 62.884 46.859 62.909 C 46.815 63.111 46.682 63.209 46.601 63.214 Z M 47.423 62.545 C 47.454 62.249 47.684 61.949 47.915 61.894 C 47.991 62.008 48.087 62.096 48.203 62.15 C 48.162 62.743 48.016 62.911 47.949 62.958 C 47.926 62.974 47.852 63.023 47.657 62.95 C 47.592 62.924 47.392 62.848 47.423 62.545 Z M 54.777 54.677 C 54.729 54.955 54.548 55.314 54.19 55.406 C 54.163 55.413 53.916 55.474 53.881 55.394 C 53.779 55.158 54.089 54.484 54.382 54.301 C 54.553 54.194 54.66 54.186 54.698 54.212 C 54.759 54.252 54.821 54.422 54.777 54.677 Z M 49.878 58.201 C 49.736 58.142 49.572 58.209 49.512 58.35 C 49.295 58.867 49.108 58.951 49.07 58.945 C 49.012 58.936 48.891 58.787 48.865 58.532 C 48.85 58.398 48.839 57.95 49.273 57.786 C 49.419 57.732 49.492 57.571 49.437 57.426 C 49.43 57.407 49.417 57.394 49.407 57.378 C 49.403 57.323 49.388 57.269 49.352 57.223 C 49.255 57.102 49.079 57.081 48.957 57.178 C 48.491 57.549 48.163 57.578 48.024 57.49 C 47.936 57.433 47.901 57.313 47.935 57.177 C 47.998 56.917 48.324 56.59 49.028 56.529 C 49.063 56.525 49.096 56.514 49.126 56.5 C 49.247 56.677 49.418 56.813 49.643 56.865 C 49.944 56.934 50.257 56.879 50.546 56.711 C 50.505 56.891 50.498 57.088 50.557 57.268 C 50.504 57.276 50.453 57.294 50.411 57.331 C 50.207 57.507 50.03 57.838 49.904 58.221 C 49.895 58.214 49.889 58.206 49.878 58.201 Z M 51.107 59.183 C 51.102 59.501 50.991 59.734 50.771 59.871 L 50.771 59.871 C 50.471 60.063 50.406 59.974 50.384 59.944 C 50.301 59.834 50.265 59.633 50.265 59.394 C 50.265 58.917 50.413 58.308 50.627 57.957 C 50.9 58.261 51.106 58.747 51.106 59.165 C 51.107 59.172 51.107 59.178 51.107 59.183 Z M 52.091 56.249 C 51.84 56.633 51.338 57.158 51.169 57.168 C 51.113 57.158 51.103 57.133 51.093 57.113 C 51.038 56.986 51.103 56.711 51.194 56.573 C 51.281 56.445 51.247 56.271 51.117 56.185 C 51.116 56.184 51.115 56.184 51.114 56.183 C 51.362 55.837 51.511 55.414 51.498 55.045 C 51.497 55.017 51.486 54.992 51.478 54.967 C 51.521 54.977 51.566 54.981 51.613 54.971 C 51.758 54.939 51.847 54.784 51.827 54.639 C 51.863 54.613 51.896 54.587 51.928 54.562 C 52.022 54.575 52.152 54.607 52.241 54.674 C 52.705 55.023 52.346 55.855 52.091 56.249 Z M 72.977 55.641 C 73.428 58.887 74.192 68.761 74.192 76.021 C 74.192 76.682 74.185 77.317 74.171 77.925 C 74.026 79.957 73.927 81.399 73.886 82.005 C 73.721 82.005 73.482 82.005 73.29 82.005 C 73.446 77.298 72.852 66.783 72.331 60.68 C 71.464 46.585 68.556 36.149 66.698 30.727 C 68.711 35.118 71.638 43.277 72.977 55.641 Z M 71.319 56.547 C 71.442 57.23 71.603 58.731 71.771 60.698 C 71.849 61.955 71.911 63.239 71.953 64.553 C 71.956 64.648 72.011 64.726 72.085 64.775 C 72.442 69.901 72.756 76.168 72.756 80.213 C 72.756 80.881 72.745 81.474 72.727 82.005 C 72.465 82.005 72.164 82.005 71.888 82.005 C 71.909 81.443 71.948 80.095 71.948 78.159 C 71.948 73.921 71.756 66.881 70.741 59.179 C 69.426 49.192 66.451 36.274 59.74 27.942 C 63.366 31.748 68.666 39.924 71.319 56.547 Z M 69.577 55.191 C 69.64 55.579 69.704 55.963 69.764 56.346 C 69.233 54.862 68.716 53.517 68.215 52.29 C 69.256 53.727 69.529 55.066 69.533 55.087 C 69.54 55.126 69.556 55.162 69.577 55.191 Z M 68.981 52.027 C 68.984 52.038 68.994 52.044 68.999 52.053 C 69.036 52.24 69.075 52.426 69.11 52.611 C 68.736 51.985 68.223 51.308 67.533 50.675 C 67.342 50.237 67.154 49.816 66.969 49.412 C 68.385 50.797 68.972 52.01 68.981 52.027 Z M 58.88 40.368 C 54.247 35.005 47.96 32.085 41.179 32.02 C 45.296 31.683 51.967 32.474 59.027 38.843 C 59.028 38.845 59.884 39.75 59.884 39.75 C 61.281 41.188 63.118 43.081 65.362 47.406 C 65.261 47.339 65.165 47.27 65.059 47.204 C 64.451 46.824 63.741 46.447 62.926 46.109 C 61.696 43.983 60.354 42.072 58.88 40.368 Z M 63.391 46.928 C 63.884 47.163 64.332 47.41 64.734 47.66 C 65.163 47.928 65.551 48.206 65.908 48.485 C 66.131 48.941 66.356 49.419 66.587 49.924 C 66.373 49.778 66.148 49.636 65.908 49.502 C 65.426 49.234 64.916 49.011 64.381 48.826 C 64.059 48.176 63.729 47.544 63.391 46.928 Z M 64.732 49.562 C 65.039 49.69 65.338 49.827 65.624 49.986 C 66.18 50.296 66.658 50.649 67.072 51.021 C 67.636 52.324 68.222 53.778 68.831 55.419 C 68 54.193 67.018 53.21 65.981 52.424 C 65.582 51.435 65.165 50.481 64.732 49.562 Z M 70.238 60.078 C 70.249 60.126 70.275 60.165 70.305 60.198 C 70.339 60.476 70.371 60.754 70.405 61.031 C 69.807 59.472 68.822 57.525 67.26 55.871 C 66.986 55.062 66.7 54.278 66.407 53.51 C 68.088 55.009 69.533 57.113 70.238 60.078 Z M 70.714 80.474 C 70.714 79.977 70.751 79.446 70.786 78.921 L 70.854 77.464 L 70.858 76.186 C 70.861 75.776 70.862 75.37 70.862 74.966 C 70.862 72.896 70.813 70.889 70.461 68.759 C 70.004 65.993 69.403 63.229 68.676 60.539 C 68.377 59.434 68.063 58.361 67.735 57.321 C 70.02 60.366 70.673 63.905 70.682 63.954 C 70.689 63.995 70.704 64.031 70.726 64.062 C 71.586 73.16 71.381 80.518 71.327 81.997 C 71.181 81.994 71.025 81.991 70.921 81.99 C 70.769 81.569 70.714 81.047 70.714 80.474 Z M 80.673 28.714 C 79.757 28.814 79.037 29.82 78.474 31.794 C 77.416 35.493 75.68 57.326 74.667 71.056 C 74.531 67.07 74.258 62.918 73.976 59.722 C 73.977 59.714 73.981 59.707 73.981 59.699 C 73.989 59.465 75.701 34.458 78.218 30.227 C 79.016 28.888 79.797 28.249 80.541 28.33 C 80.921 28.371 81.277 28.611 81.602 28.935 C 81.303 28.769 80.991 28.68 80.673 28.714 Z M 33.142 66.846 C 32.986 66.774 32.804 66.747 32.627 66.792 C 32.584 66.741 32.523 66.702 32.452 66.691 C 32.299 66.67 32.157 66.777 32.136 66.93 C 32.072 67.383 31.821 67.929 31.678 68.012 C 31.658 67.995 31.611 67.952 31.536 67.789 C 31.492 67.694 31.47 67.556 31.47 67.393 C 31.47 67.052 31.569 66.612 31.769 66.277 C 31.872 66.106 32.04 65.9 32.26 65.887 C 32.409 65.878 32.524 65.754 32.524 65.607 C 32.524 65.602 32.524 65.596 32.524 65.591 C 32.515 65.436 32.382 65.319 32.228 65.327 C 31.86 65.348 31.536 65.578 31.289 65.988 C 30.915 66.612 30.798 67.525 31.029 68.023 C 31.266 68.537 31.553 68.609 31.752 68.58 C 31.821 68.569 31.884 68.544 31.945 68.51 C 32.002 68.692 32.061 68.86 32.12 69.009 C 31.495 69.175 31.179 70.113 31.245 70.93 C 31.3 71.609 31.62 72.026 32.079 72.019 C 32.321 72.017 32.524 71.926 32.667 71.757 C 32.677 71.745 32.683 71.731 32.692 71.718 C 32.847 71.825 33.013 72.195 33.003 72.564 C 33.001 72.697 32.97 72.932 32.804 73.03 C 32.684 73.099 32.635 73.072 32.613 73.059 C 32.48 72.985 32.361 72.686 32.353 72.407 C 32.349 72.253 32.22 72.131 32.065 72.135 C 31.91 72.14 31.789 72.268 31.793 72.423 C 31.805 72.838 31.979 73.349 32.341 73.551 C 32.566 73.675 32.83 73.662 33.085 73.514 C 33.383 73.341 33.552 73.009 33.564 72.578 C 33.576 72.108 33.383 71.499 32.992 71.244 C 32.959 71.223 32.923 71.209 32.885 71.202 C 32.94 70.82 32.88 70.382 32.827 70.038 C 32.915 70.089 33.006 70.124 33.1 70.131 C 33.648 70.174 33.972 69.474 34.079 69.244 C 34.44 68.466 33.837 67.173 33.142 66.846 Z M 32.238 71.396 C 32.211 71.426 32.171 71.459 32.07 71.46 C 31.917 71.462 31.824 71.164 31.801 70.886 C 31.797 70.831 31.795 70.776 31.795 70.72 C 31.795 70.26 31.943 69.819 32.137 69.638 C 32.182 69.712 32.209 69.757 32.227 69.787 C 32.24 69.886 32.264 70.07 32.264 70.07 C 32.295 70.276 32.347 70.611 32.347 70.901 C 32.347 71.112 32.32 71.3 32.238 71.396 Z M 33.57 69.009 C 33.351 69.482 33.186 69.576 33.143 69.572 C 33.139 69.571 32.815 69.531 32.404 68.105 C 32.395 68.075 32.379 68.047 32.361 68.023 C 32.433 67.888 32.492 67.743 32.539 67.604 C 32.551 67.587 32.566 67.574 32.575 67.554 C 32.712 67.263 32.828 67.318 32.906 67.354 C 33.342 67.558 33.791 68.532 33.57 69.009 Z" /></svg>