<svg xmlns="http://www.w3.org/2000/svg" style="overflow: hidden; position: relative;" width="70" height="75" version="1.1"><desc>Created with Raphael 2.1.0</desc><defs /><circle style="fill: #003fcc;" fill="#0099cc" stroke="none" cx="35" cy="35" r="35" /><circle style="opacity: 0.8; fill: #003fcc; stroke: #eee;" opacity="0.8" fill="none" stroke="#eeeeee" stroke-dasharray="4,3" cx="35" cy="35" r="33" /><path style="fill: #fff; stroke: none;" fill="#ffffff" stroke="none" stroke-width="1.42857" transform="matrix(0.7 0 0 0.7 0 0)" d="M 31.846 20.949 C 31.846 16.586 35.382 13.049 39.746 13.049 C 42.77 13.049 45.397 14.749 46.725 17.247 C 47.023 17.188 47.33 17.156 47.647 17.156 C 49.837 17.156 51.68 18.643 52.223 20.664 C 52.434 20.643 52.645 20.633 52.86 20.633 C 54.206 20.633 55.458 21.025 56.51 21.698 C 57.024 21.422 57.61 21.264 58.233 21.264 C 59.897 21.264 61.299 22.384 61.731 23.91 C 62.081 23.834 62.442 23.792 62.815 23.792 C 64.721 23.792 66.379 24.846 67.241 26.403 C 67.442 26.35 67.653 26.32 67.872 26.32 C 69.268 26.32 70.399 27.452 70.399 28.848 C 70.399 29.186 70.333 29.508 70.211 29.802 C 71.547 29.869 72.611 30.971 72.611 32.323 C 72.611 33.719 71.478 34.851 70.082 34.851 C 69.187 34.851 68.402 34.384 67.953 33.682 C 67.639 33.823 67.289 33.903 66.922 33.903 C 66.283 33.903 65.703 33.665 65.258 33.274 C 64.533 33.674 63.701 33.903 62.815 33.903 C 61.594 33.903 60.477 33.471 59.602 32.753 C 58.973 33.274 58.166 33.588 57.284 33.588 C 56.874 33.588 56.479 33.519 56.112 33.393 C 55.145 33.92 54.038 34.22 52.86 34.22 C 50.786 34.22 48.929 33.288 47.683 31.822 C 46.752 32.533 45.59 32.956 44.329 32.956 C 41.751 32.956 39.587 31.195 38.973 28.81 C 34.971 28.421 31.846 25.051 31.846 20.949 Z M 74.68 37.473 C 74.68 37.473 73.442 36.725 71.627 36.725 C 69.811 36.725 68.572 37.473 68.572 37.473 L 68.244 55.92 L 54.738 47.364 V 56.867 L 39.736 47.364 V 56.867 L 24.735 47.364 V 78.43 H 75.409 L 74.68 37.473 Z M 40.799 69.932 H 31.739 V 62.979 H 40.799 V 69.932 Z M 53.018 69.932 H 44.592 V 62.979 H 53.018 V 69.932 Z M 65.238 69.932 H 56.81 V 62.979 H 65.238 V 69.932 Z" /></svg>