<svg xmlns="http://www.w3.org/2000/svg" style="overflow: hidden; position: relative;" width="70" height="75" version="1.1" xmlns="http://www.w3.org/2000/svg"><desc>Created with Raphaël 2.1.0</desc><defs /><circle style="fill: #0099cc;" fill="#0099cc" stroke="none" cx="35" cy="35" r="35" /><circle style="opacity: 0.8; fill: #0099cc; stroke: #eee;" opacity="0.8" fill="none" stroke="#eeeeee" stroke-dasharray="4,3" cx="35" cy="35" r="33" /><path fill="#ffffff" stroke="none" stroke-width="1.42857" transform="matrix(0.7 0 0 0.7 0 0)" d="M 68.8 86 H 57.6 C 57.6 86 47.5 64.5 46.5 63.7 S 35.4 61.6 35.4 61.6 L 37.4 65.4 L 35.4 66.4 L 45.7 86 H 33 L 30.6 88 H 71.2 L 68.8 86 Z M 61.7 15.9 C 55.3 19 54 19.9 54 19.9 C 49.7 22.9 50 22.6 44.3 26.5 C 37.9 30.8 36.5 30 35.1 31.4 C 33.7 32.8 35 31.4 33.3 33.6 C 32.1 35.2 31.9 44.8 31.3 47.3 C 30.7 49.7 28.8 53.4 29.6 58.3 C 30.2 62.2 28.7 62.9 30.1 64.5 C 31.6 66.1 33.4 63.4 33.4 63.4 S 35.2 60.3 35 59.8 C 34.8 59.3 36.5 61.3 39.2 58.5 C 41.8 55.7 41.2 57.7 42.9 54.8 L 45.5 52.2 C 45.5 52.2 50.6 51.4 50.2 49 C 51.6 47.8 51.1 49.1 54.1 44.5 C 57.1 39.8 54.8 44.2 61.8 37.7 C 68.8 31.3 65.6 30.4 70.3 28.7 C 71.2 28.4 71.9 28.1 72.6 27.8 V 11 C 71.6 11.3 67.4 13.2 61.7 15.9 Z M 35.5 52 C 35.8 51.3 36.8 47.1 36.8 47.1 L 37.9 48.6 L 35.5 52 Z M 75 90 H 74 V 89 H 75 V 90 Z M 73 90 H 72 V 89 H 73 V 90 Z M 71 90 H 70 V 89 H 71 V 90 Z M 69 90 H 68 V 89 H 69 V 90 Z M 67 90 H 66 V 89 H 67 V 90 Z M 65 90 H 64 V 89 H 65 V 90 Z M 63 90 H 62 V 89 H 63 V 90 Z M 61 90 H 60 V 89 H 61 V 90 Z M 59 90 H 58 V 89 H 59 V 90 Z M 57 90 H 56 V 89 H 57 V 90 Z M 55 90 H 54 V 89 H 55 V 90 Z M 53 90 H 52 V 89 H 53 V 90 Z M 51 90 H 50 V 89 H 51 V 90 Z M 49 90 H 48 V 89 H 49 V 90 Z M 47 90 H 46 V 89 H 47 V 90 Z M 45 90 H 44 V 89 H 45 V 90 Z M 43 90 H 42 V 89 H 43 V 90 Z M 41 90 H 40 V 89 H 41 V 90 Z M 39 90 H 38 V 89 H 39 V 90 Z M 37 90 H 36 V 89 H 37 V 90 Z M 35 90 H 34 V 89 H 35 V 90 Z M 33 90 H 32 V 89 H 33 V 90 Z M 31 90 H 30 V 89 H 31 V 90 Z M 29 90 H 28 V 89 H 29 V 90 Z M 27 90 H 26 V 89 H 27 V 90 Z M 25.9 89.1 L 25.3 88.3 L 26.1 87.7 L 26.7 88.5 L 25.9 89.1 Z M 75 89 L 74.2 88.3 L 74.9 87.6 L 75.7 88.3 L 75 89 Z M 27.5 87.9 L 26.9 87.1 L 27.7 86.5 L 28.3 87.3 L 27.5 87.9 Z M 73.5 87.6 L 72.7 86.9 L 73.4 86.2 L 74.2 86.9 L 73.5 87.6 Z M 29.2 86.7 L 28.6 85.9 L 29.4 85.3 L 30 86.1 L 29.2 86.7 Z M 72 86.2 L 71.2 85.5 L 71.9 84.8 L 72.7 85.5 L 72 86.2 Z M 30.9 85.4 L 30.3 84.6 L 31 84.1 C 31.1 84 31.2 84 31.3 84 H 31.4 V 84.7 L 31.6 84.9 L 30.9 85.4 Z M 70.7 85 H 69.7 V 84 H 70.7 V 85 Z M 68.7 85 H 67.7 V 84 H 68.7 V 85 Z M 66.6 85 H 65.6 V 84 H 66.6 V 85 Z M 64.5 85 H 63.5 V 84 H 64.5 V 85 Z M 62.5 85 H 61.5 V 84 H 62.5 V 85 Z M 60.4 85 H 59.4 V 84 H 60.4 V 85 Z M 58.3 85 H 57.3 V 84 H 58.3 V 85 Z M 56.3 85 H 55.3 V 84 H 56.3 V 85 Z M 54.2 85 H 53.2 V 84 H 54.2 V 85 Z M 52.1 85 H 51.1 V 84 H 52.1 V 85 Z M 50 85 H 49 V 84 H 50 V 85 Z M 48 85 H 47 V 84 H 48 V 85 Z M 45.9 85 H 44.9 V 84 H 45.9 V 85 Z M 43.8 85 H 42.8 V 84 H 43.8 V 85 Z M 41.8 85 H 40.8 V 84 H 41.8 V 85 Z M 39.7 85 H 38.7 V 84 H 39.7 V 85 Z M 37.6 85 H 36.6 V 84 H 37.6 V 85 Z M 35.6 85 H 34.6 V 84 H 35.6 V 85 Z M 33.5 85 H 32.5 V 84 H 33.5 V 85 Z" /></svg>